<svg width="71" height="27" fill="none" xmlns="http://www.w3.org/2000/svg"><path d="M18.175 21.648c.039.079.088.137.146.176.078.04.127.108.147.205-.04.078-.069.147-.088.205 0 .078-.04.137-.117.176l-.586-.117c-.176-.04-.371-.078-.586-.117-.215 0-.381.039-.498.117-.117.098-.283.146-.498.146a.51.51 0 01-.352-.175l-.293.058c-.078.02-.146-.01-.205-.088-.351.059-.586.127-.703.205a.745.745 0 01-.38.147.703.703 0 01-.206-.293h-.205a.327.327 0 01-.146-.03 3.41 3.41 0 01-.44.176.516.516 0 01-.498-.087 1.41 1.41 0 01-.44.058 2.92 2.92 0 00-.439.088l-.176.117c-.039.04-.117.05-.234.03 0-.215.039-.313.117-.293.098.039.166.02.205-.059.098-.156.186-.244.264-.264.098 0 .195-.01.293-.029a.992.992 0 00.351-.176c.098-.078.254-.107.47-.088a.514.514 0 00.204-.205c.059-.078.127-.146.205-.205 0-.117.03-.205.088-.264.059-.058.088-.156.088-.293.098-.136.137-.214.117-.234-.02-.02-.029-.049-.029-.088.02-.195 0-.351-.059-.468a.645.645 0 010-.47.69.69 0 01-.029-.439c-.098-.234-.137-.361-.117-.38.039-.04.049-.079.03-.118a2.158 2.158 0 00-.177-.498 1.585 1.585 0 01-.087-.556 1.304 1.304 0 01-.176-.41l-.117-.47c.078-.253.078-.41 0-.468l-.176-.176a10.71 10.71 0 01-.41.117c-.059.02-.108.04-.147.059a3.1 3.1 0 01-.44-.03 1.3 1.3 0 00-.41-.058c-.097.04-.214.078-.351.117a.393.393 0 01-.322-.088c-.215-.02-.342-.039-.381-.058a.46.46 0 00-.088-.118.913.913 0 00-.322.118.399.399 0 01-.264.029l-.117-.117a.176.176 0 00-.117-.117c-.157 0-.332.048-.528.146-.039.293-.078.479-.117.557a.66.66 0 01-.117.234c-.04.078-.078.156-.117.235-.02.078 0 .166.058.263a1.62 1.62 0 01-.146.322c-.04.079-.078.166-.117.264v.176c.02.039.02.088 0 .146a.712.712 0 01-.147.352c-.058.098-.078.244-.058.44a2.05 2.05 0 00-.147.292.922.922 0 01-.117.293c.039.235.039.371 0 .41a.91.91 0 00-.059.176v.147a.27.27 0 010 .176c-.039.136-.088.253-.146.351-.04.098-.069.225-.088.381-.078.254-.147.41-.205.469 0 .215-.01.38-.03.498-.019.117-.107.176-.263.176-.195.156-.313.273-.352.351a.207.207 0 01-.175.176c-.098.195-.196.322-.293.38a.742.742 0 01-.352.118.78.78 0 00-.205.146c-.059.059-.147.079-.264.059l-.146.146c-.04.06-.117.079-.235.06-.234-.06-.341-.06-.322 0 .02.058.01.126-.03.204-.058.254-.155.39-.292.41-.137.02-.274.02-.41 0a3.264 3.264 0 01-.352.205.99.99 0 00-.234.264c-.098 0-.166.03-.205.088a.375.375 0 01-.235.146 4.288 4.288 0 00-.351.381.533.533 0 01-.235.176 2.264 2.264 0 00-.79.586c-.215.234-.43.45-.645.645a.648.648 0 01-.264-.206c-.097-.078-.117-.195-.058-.351.058-.059.127-.117.205-.176a.37.37 0 00.175-.205c.157-.098.274-.185.352-.264.078-.058.117-.156.117-.293.215-.293.42-.634.615-1.025a.78.78 0 00.205-.146l.118-.176a.551.551 0 01.146-.322.668.668 0 00.147-.264.674.674 0 00.234-.235c.04-.117.059-.234.059-.351a4.29 4.29 0 01.146-.322l.117-.293c.274-.293.44-.586.498-.88.078-.292.176-.556.293-.79.04-.196.078-.293.117-.293.06 0 .088-.02.088-.059a2.922 2.922 0 01-.058-.351.46.46 0 01.088-.118c0-.234.029-.42.088-.556l.234-.469c-.04-.078-.049-.137-.03-.176a.372.372 0 00.089-.175c-.04-.235-.02-.44.058-.616a3.34 3.34 0 00.176-.586c.039-.058.068-.107.088-.146l.117-.176c.059-.117.098-.244.117-.38.02-.157.059-.294.117-.411 0-.098.01-.186.03-.264.02-.078.048-.156.088-.234 0-.254.01-.41.029-.469l.058-.175c.02-.098.03-.176.03-.235a.599.599 0 000-.264c.058-.332.127-.654.205-.966.097-.313.185-.635.263-.967a.367.367 0 00.088-.147.652.652 0 01.088-.205 3.8 3.8 0 00.088-.351c0-.04.02-.078.059-.117.039-.235.068-.46.088-.674.02-.215.048-.43.088-.645.02-.195.048-.322.087-.38.04-.06.079-.128.118-.206.02-.176.01-.332-.03-.469a1.072 1.072 0 010-.498c.137-.156.244-.322.323-.498-.04-.214-.02-.361.058-.44-.078-.253-.097-.41-.058-.468.058-.078.107-.137.146-.176.117-.312.195-.595.234-.85.04-.273.127-.497.264-.673.098-.234.137-.42.117-.557a.47.47 0 00-.117-.293.266.266 0 010-.293.74.74 0 00.088-.175.284.284 0 01.117-.176c.02-.156.03-.313.03-.469 0-.176.019-.342.058-.498-.098-.273-.117-.459-.059-.557-.039-.078-.078-.127-.117-.146-.039-.02-.068-.059-.088-.117.079-.215.069-.4-.029-.557a.368.368 0 00-.146-.088l-.118-.117c-.214-.098-.273-.176-.175-.234a.663.663 0 00.234-.235.197.197 0 00-.176-.088.65.65 0 00-.205-.029.649.649 0 01-.205-.03c-.058-.038-.088-.107-.088-.204.098-.04.205-.069.322-.088.118-.02.225-.05.323-.088.37.02.605.058.703.117.156-.039.293-.088.41-.146.117-.079.273-.088.469-.03.234.059.39.03.469-.088.097-.136.205-.214.322-.234.136-.02.234.03.293.147.058.117.058.253 0 .41A.744.744 0 0010.47.76a3.5 3.5 0 01.263-.117c.274.117.45.156.528.117.097-.059.215-.108.351-.147.235.117.371.166.41.147a.246.246 0 01.205-.03 1.91 1.91 0 00.206-.117c.058-.058.136-.078.234-.058.098.195.117.322.059.38a.652.652 0 00-.088.235c.117.195.166.312.146.351 0 .04.01.079.03.118l-.06.351v.381c.02.059.04.108.06.147.019.039.029.107.029.205.156.117.224.205.205.263v.176c.039.195.049.342.03.44a.331.331 0 00.028.234c.02.078.04.146.059.205.04.04.059.078.059.117.175.176.244.274.205.293a.879.879 0 00-.088.117c.156.313.244.547.264.703.019.137.068.254.146.352.02.234.107.44.264.615.039.293.078.576.117.85.039.254.068.537.088.85.078-.02.127-.05.146-.088.04-.04.098-.05.176-.03-.059.196-.059.293 0 .293s.098.02.117.059c0 .098-.03.166-.088.205a.284.284 0 00-.117.176c.137.332.215.576.234.732l.06.469c.097.176.155.303.175.38.02.079 0 .147-.059.206.02.156.05.273.088.351.059.079.127.166.205.264-.02.098-.01.176.03.235.039.058.058.136.058.234s-.03.166-.088.205c-.039.039-.058.098-.058.176l.263.351c.059.078.108.137.147.176.058.234.097.42.117.557a.733.733 0 00.176.293c-.04.37.01.644.146.82l.293.176c.098.039.195.088.293.146.04.137-.01.254-.146.352l.058.234c.04.059.04.137 0 .235.04.117.069.253.088.41a.977.977 0 01.03.41l.058.234c.02.078.03.166.03.264a.582.582 0 01.058.264c.02.097.03.205.03.322a.74.74 0 01.087.176c.02.039.04.087.059.146 0 .117.02.225.058.322.04.078.079.157.117.235.02.195.05.37.088.527.059.156.088.342.088.557.137.332.264.547.381.644.137.078.254.176.352.293.02.176.01.322-.03.44a5.954 5.954 0 00-.117.322c.098.137.166.293.205.469.04.156.088.312.147.468zm-6.446-8.466c.098.117.225.127.381.029-.039-.156-.078-.303-.117-.44l-.117-.468c.059-.078.068-.176.03-.293a.821.821 0 01.029-.381 1.617 1.617 0 01-.147-.322.822.822 0 00-.205-.323.37.37 0 00-.088-.175.373.373 0 01-.088-.176c0-.117-.01-.244-.03-.381 0-.137.02-.264.06-.38a8.906 8.906 0 00-.235-.44 8.993 8.993 0 01-.234-.44 8.016 8.016 0 01-.117-.644c0-.098.01-.205.029-.323.039-.117-.02-.185-.176-.205-.039.274-.068.47-.088.586a.644.644 0 01-.117.264 2.71 2.71 0 00-.03.38c0 .098-.009.216-.029.352a.48.48 0 00-.146.352c.02.117.03.264.03.44-.06.116-.118.234-.176.35l-.176.294a.86.86 0 00-.03.205c.02.059.01.117-.029.176a.654.654 0 01-.088.234.909.909 0 00-.058.176v.176c.02.058.029.117.029.175 0 .098-.01.205-.03.323-.019.117-.038.215-.058.293a.687.687 0 01-.146.234 1.91 1.91 0 00-.118.205c-.039.215.01.283.147.205.156-.078.283-.117.38-.117a.37.37 0 01.147.088.9.9 0 00.176.059c.156.039.293.039.41 0a.44.44 0 01.381.058c.195-.098.41-.146.644-.146zm19.307.175c.02.274 0 .46-.059.557a2.041 2.041 0 00-.146.293c0 .176-.03.303-.088.38a.417.417 0 01.059.235c0 .078.01.157.03.235a.514.514 0 00-.06.41c-.039.039-.058.107-.058.205 0 .078-.02.146-.059.205.04.156.078.273.117.351 0 .196-.039.372-.117.528a3.709 3.709 0 00-.146.498c-.04.273-.098.44-.176.498a1.16 1.16 0 00-.176.146 3.65 3.65 0 01-.38.528c-.118.156-.235.322-.352.498-.098.215-.205.322-.323.322a.445.445 0 00-.117.235c0 .097-.01.195-.029.292a1.363 1.363 0 01-.351.235c-.176.293-.372.449-.586.469-.215 0-.352.087-.41.263.038.196-.02.323-.176.381-.137.059-.293.078-.47.059-.214.195-.35.302-.41.322a2.21 2.21 0 01-.38.322c-.078.04-.186.069-.322.088a.47.47 0 00-.235 0 .409.409 0 01-.176-.03.932.932 0 01-.351.118l-.41.117-.176.059a.247.247 0 01-.205.03c-.371-.157-.645-.196-.82-.118a4.681 4.681 0 01-.557.205 9.955 9.955 0 00-.322-.059.582.582 0 01-.264-.058h-.498a.278.278 0 00-.235.117 2.693 2.693 0 00-.38-.03h-.323a1.15 1.15 0 01-.234.089.656.656 0 01-.234.087 7.12 7.12 0 01-.41-.234 1.909 1.909 0 00-.206-.117.728.728 0 00-.322.176c-.078.078-.215.097-.41.058a.473.473 0 00-.264-.117c-.117-.02-.195-.068-.234-.146-.176 0-.303.029-.38.087a.47.47 0 00-.235 0 .582.582 0 01-.264.06c-.039-.235-.03-.352.03-.352h.204c.215-.196.371-.342.47-.44a.717.717 0 01.41-.234c.253.02.429-.01.527-.088.117-.098.224-.195.322-.293.117 0 .205-.03.264-.088.078-.059.146-.127.205-.205a2.548 2.548 0 01-.03-.352c0-.117-.01-.224-.029-.322a1.01 1.01 0 01.147-.293c-.02-.098-.059-.166-.118-.205a1.919 1.919 0 01-.117-.205.176.176 0 01.117-.117.745.745 0 01.176-.088c0-.235.02-.371.059-.41a.655.655 0 00.088-.205c.097-.274.078-.44-.059-.498a.703.703 0 01-.264-.352.879.879 0 010-.322c.04-.078.069-.166.088-.264a.428.428 0 00-.146-.205.689.689 0 01-.147-.234c.02-.098.04-.186.059-.264.02-.078.039-.166.058-.264a.368.368 0 01.147-.088.968.968 0 00.146-.117 1.27 1.27 0 00.03-.469 3.979 3.979 0 00-.088-.468 3.493 3.493 0 010-.645c.02-.176.049-.342.088-.498a7.336 7.336 0 00-.088-.644c-.02-.215-.078-.4-.176-.557.02-.04.04-.088.059-.147.02-.078.01-.136-.03-.175.098-.157.157-.352.176-.586.02-.254-.02-.469-.117-.645.04-.234.078-.41.117-.527a.89.89 0 00-.03-.264v-.264c.079-.234.098-.37.06-.41a.193.193 0 01.029-.175 1.2 1.2 0 01-.147-.47c0-.194-.029-.36-.088-.497 0-.176.03-.313.088-.41.059-.098.069-.245.03-.44a3.493 3.493 0 00-.118-.264.782.782 0 00-.175-.263.9.9 0 01.029-.381c-.098-.078-.225-.068-.38.03-.157.077-.274.058-.352-.06 0-.234-.069-.331-.206-.292-.117.02-.205-.01-.263-.088-.098-.176-.186-.283-.264-.322-.058-.04-.068-.108-.03-.206-.253-.117-.429-.175-.527-.175-.097-.02-.136-.098-.117-.235a.48.48 0 01.264-.058c.098-.02.186 0 .264.058.136.02.244-.01.322-.088.078-.078.185-.097.322-.058.332.176.576.215.732.117.157-.098.362-.137.616-.117.176.02.273.01.293-.03a.176.176 0 01.117-.117c.41.137.693.157.85.059a.922.922 0 01.615-.088c.117.176.215.244.293.205.078-.039.156-.068.234-.088.098.04.186.078.264.117.078.02.166.03.264.03.332.156.556.205.673.146.117-.058.274-.088.469-.088.137.04.303.05.498.03.195-.02.313.048.352.205.097.039.185.078.263.117.078.02.176.039.293.058l.117.118c.06.02.108.048.147.088.156 0 .283.02.38.058.099.02.157.088.177.205.39-.058.585.108.585.498.098 0 .215-.01.352-.029.137-.02.235.01.293.088.098.234.195.361.293.38.117.02.195.079.234.176.02.196.059.303.118.323.078.02.127.078.146.176.02.195.068.293.147.293.078 0 .127.029.146.087.078.274.166.47.264.586.117.118.224.244.322.381.156.059.313.147.469.264.097.117.166.176.205.176.058-.02.107-.02.146 0 .157.117.225.312.205.586-.02.273-.058.507-.117.703.04.078.078.146.117.205a.317.317 0 01.088.234c.137.215.225.342.264.381.039.02.068.049.088.088.02.176.02.332 0 .469 0 .117-.03.214-.088.293.098.117.146.195.146.234 0 .02.01.049.03.088v.352c0 .097-.02.195-.059.292zm-3.691.616c0-.157.029-.274.088-.352a1.04 1.04 0 00.175-.322l-.175-.176c-.059-.078-.078-.185-.059-.322-.039-.196-.078-.303-.117-.322-.04-.02-.059-.06-.059-.118.196-.195.283-.322.264-.38a.737.737 0 00-.088-.176l-.117-.176c-.04-.059-.049-.137-.03-.234a.569.569 0 01-.234-.352c.02-.215-.02-.342-.117-.38-.078-.04-.117-.138-.117-.294-.137-.215-.186-.351-.147-.41a.368.368 0 00-.146-.088.37.37 0 01-.088-.146v-.176c.02-.078.01-.137-.03-.176a.4.4 0 00-.263.03c-.059.019-.127.038-.205.058a3.769 3.769 0 00-.117-.703c-.176-.156-.254-.244-.235-.264a.124.124 0 000-.117 1.745 1.745 0 00-.38-.03c-.157-.175-.254-.253-.293-.234a.26.26 0 01-.118-.029 1.902 1.902 0 00-.44-.234 1.455 1.455 0 00-.439-.176.473.473 0 00-.293.03c.059.136.04.243-.058.321a.78.78 0 00-.176.264c0 .195-.03.332-.088.41-.039.059-.078.137-.117.235a.33.33 0 00-.03.234.65.65 0 00.089.205c.039.195.078.313.117.352.058.039.107.097.146.175a.27.27 0 010 .176.47.47 0 000 .234c.078.215.108.342.088.381v.118c.059.156.04.293-.059.41a.744.744 0 00-.146.38c.117.118.186.216.205.294.02.097 0 .195-.059.292a.66.66 0 00-.117.235c.04.059.059.156.059.293.02.117.01.215-.03.293.02.195.01.332-.029.41.02.059.02.117 0 .176a.467.467 0 000 .234 1.41 1.41 0 01-.146.381.933.933 0 00-.117.352c.058.097.127.185.205.263.097.059.127.196.088.41.058.157.068.274.029.352.058.098.068.225.03.38-.04.157-.01.284.087.382l-.176.293c-.039.078-.078.166-.117.263.098.157.166.352.205.586.04.215.01.4-.088.557.04.176.05.283.03.322 0 .04.02.078.058.117l-.117.352c-.02.098-.049.205-.088.322.059.078.108.244.147.498.195-.02.302-.01.322.03.02.02.068.029.146.029.078.02.147-.01.206-.088a.278.278 0 01.263-.088c.117-.117.195-.186.234-.205a.367.367 0 01.147-.088c.215-.098.322-.127.322-.088.02.04.05.078.088.117.274-.058.41-.224.41-.498.137-.117.235-.195.293-.234a.443.443 0 00.147-.176c.215-.351.42-.576.615-.674a.905.905 0 00-.059-.175.65.65 0 01-.029-.206c.117-.097.225-.175.322-.234a.992.992 0 00.235-.264.996.996 0 010-.585c.097-.196.156-.332.175-.41.02-.079.03-.167.03-.264.098-.176.137-.293.117-.352a.47.47 0 010-.234c.098-.235.156-.371.176-.41.039-.04.049-.098.03-.176a.683.683 0 00-.118-.176 1.308 1.308 0 01-.117-.234zm20.976 7.763c.04.059.108.078.205.059.118-.04.186 0 .205.117a.442.442 0 01-.146.176.968.968 0 01-.117.146h-.44c-.117.02-.224-.02-.322-.117a5.959 5.959 0 01-.322.117c-.117.04-.225.01-.322-.088-.215 0-.342-.019-.381-.058-.196.02-.352-.03-.47-.147-.194.02-.34.088-.438.206a.892.892 0 01-.381.263c-.059-.176-.098-.273-.118-.293-.02-.02-.029-.049-.029-.088a.33.33 0 00.03-.234c0-.098.019-.186.058-.264.176-.195.283-.361.322-.498-.039-.039-.107-.058-.205-.058-.098 0-.156-.05-.176-.147 0-.234-.01-.361-.029-.38a.38.38 0 000-.294c-.039-.097-.02-.195.059-.293l-.176-.175c-.059-.059-.088-.147-.088-.264a.736.736 0 01.176-.293.73.73 0 00.176-.322c-.215-.117-.362-.235-.44-.352a.812.812 0 010-.527c.059-.157.108-.293.147-.41-.04-.176-.03-.323.029-.44-.176-.176-.244-.273-.205-.293a.461.461 0 00.088-.117 11.126 11.126 0 01-.264-.234c-.02-.04-.01-.079.03-.118-.118-.312-.157-.517-.118-.615.04-.098.069-.215.088-.351-.098-.215-.176-.342-.234-.381a.367.367 0 01-.088-.147c-.04-.215-.049-.332-.03-.351a.191.191 0 00.088-.088 1.14 1.14 0 01-.087-.235.652.652 0 00-.088-.234c.02-.137.039-.254.058-.351a.928.928 0 00.03-.41 1.596 1.596 0 01-.088-.206 1.092 1.092 0 01-.03-.263 1.139 1.139 0 00.146-.293c-.175-.059-.282-.059-.322 0-.019.039-.058.068-.117.088-.039.156-.097.263-.175.322a.37.37 0 00-.176.205c.078.234.088.38.03.44l-.177.175c-.02.195-.049.361-.088.498-.039.117-.039.274 0 .469a3.576 3.576 0 01-.293.264.475.475 0 00-.205.293c0 .058.01.117.03.175.039.04.049.098.029.176-.117.234-.176.39-.176.469a.65.65 0 01-.03.205c0 .254-.028.4-.087.44-.059.019-.107.068-.147.146.02.098.05.185.088.264a.429.429 0 01.088.263c-.02.156-.127.283-.322.381a1.654 1.654 0 00-.264.527.57.57 0 01-.205.381.696.696 0 01-.117.323 3.093 3.093 0 00-.176.263c-.02.078-.02.137 0 .176.02.039.04.088.059.146a.837.837 0 000 .44c.039.137.02.273-.059.41-.273.156-.37.361-.293.615-.097.176-.136.274-.117.293.02 0 .03.02.03.059a3.118 3.118 0 01-.088.205c-.02.02-.01.078.029.176-.215.058-.332.107-.352.146 0 .02-.039.02-.117 0a.285.285 0 01-.176-.117l-.117-.176c0-.097.01-.166.03-.205.019-.039.029-.098.029-.176-.117-.273-.205-.42-.264-.44-.059-.038-.078-.107-.059-.204-.058-.235-.078-.381-.058-.44a5.84 5.84 0 00.059-.263c-.02-.078-.128-.137-.323-.176-.02-.04-.039-.088-.058-.146a.194.194 0 01.029-.176c-.117-.235-.156-.362-.117-.381a.367.367 0 00.088-.147 3.482 3.482 0 00-.264-.117c-.078-.058-.098-.146-.059-.264-.156-.214-.224-.351-.205-.41a2.77 2.77 0 01.059-.205.37.37 0 00-.088-.146l-.059-.176c-.117-.254-.185-.43-.205-.527 0-.098.02-.196.059-.293a.326.326 0 00-.03-.147v-.176a.651.651 0 00-.263-.38 1.865 1.865 0 01-.322-.352.504.504 0 00-.03-.205 1.455 1.455 0 00-.087-.147.76.76 0 01.029-.234.33.33 0 00-.03-.234c-.175-.196-.273-.352-.292-.47a.859.859 0 00-.06-.321c-.097-.215-.126-.332-.087-.352.04-.02.049-.059.03-.117-.176-.137-.235-.234-.176-.293l-.176-.117a.372.372 0 01-.088-.176.893.893 0 000-.322c0-.098.02-.225.058-.381-.02-.04-.068-.059-.146-.059a.65.65 0 00-.205-.029c-.117.039-.176.117-.176.234.02.117.02.235 0 .352-.059.254-.137.43-.234.527.058.215.068.352.029.41l-.059.176c.02.098.04.176.059.234.04.04.068.088.088.147a.445.445 0 01-.117.234l-.176.118c.02.254.01.4-.03.439.098.078.147.166.147.264v.351c-.098.235-.195.4-.293.498.059.235.069.371.03.41l-.06.118c.02.058.03.117.03.175.02.04.03.098.03.176.058.196.068.313.029.352a.456.456 0 00-.117.088c.02.058.029.117.029.175.02.06.039.108.059.147 0 .117-.04.195-.118.234a.37.37 0 00-.175.205c.058.235.078.47.058.704-.02.214-.02.43 0 .644 0 .313-.058.537-.176.674-.117.117-.175.283-.175.498.097.176.136.283.117.322l-.059.117c.04.098.049.196.03.293v.264c.078.234.038.371-.118.41a2.198 2.198 0 00-.38.147 2.561 2.561 0 01-.47.234c-.117.195-.175.303-.175.322.02.02.03.04.03.059-.079.098-.206.176-.382.234a.86.86 0 00-.322-.058.317.317 0 00-.234.088c-.02.156-.059.234-.118.234a.482.482 0 00-.146.03c-.04.038-.078.077-.117.116-.02.059-.069.088-.147.088-.117.137-.185.205-.205.205 0 .02-.02.03-.058.03-.196.117-.313.205-.352.263-.02.078-.059.098-.117.059-.059.059-.088.107-.088.146 0 .059-.02.108-.059.147-.195.098-.283.156-.263.176.02.02.02.049 0 .088a1.686 1.686 0 00-.264.263.56.56 0 01-.322.235 1.533 1.533 0 00-.176.263c-.059.078-.127.166-.205.264-.195.078-.332.156-.41.234a1.681 1.681 0 00-.264.264c-.117-.293-.146-.508-.088-.645a.3.3 0 01.264-.234c.039-.098.078-.205.117-.322l.117-.293a.99.99 0 00.235-.264l.175-.293c.04-.156.078-.283.118-.38a.442.442 0 01.146-.176.523.523 0 00.147-.147c-.04-.234-.03-.371.029-.41a4.12 4.12 0 01.176-.527c.078-.117.136-.244.175-.381a.524.524 0 00.147-.147.524.524 0 01.146-.146.38.38 0 010-.293c.059-.117.108-.225.147-.322-.059-.176-.069-.274-.03-.293a.962.962 0 00.147-.118c-.039-.195-.088-.293-.146-.293-.059-.02-.079-.078-.059-.175.156-.078.234-.157.234-.235 0-.078-.02-.136-.058-.175.058-.098.078-.215.058-.352a.433.433 0 01.117-.38c-.019-.274-.01-.47.03-.587a.736.736 0 01.176-.293c0-.156.02-.293.058-.41a.948.948 0 000-.469c.078-.136.147-.332.205-.586-.136-.215-.175-.332-.117-.351a.443.443 0 00.176-.147c-.098-.293-.137-.478-.117-.556a.402.402 0 00-.059-.293c0-.078.02-.137.059-.176a.962.962 0 00.117-.147c.02-.234.039-.4.058-.498a.543.543 0 000-.351c.02-.098.05-.195.088-.293.059-.117.078-.254.059-.41 0-.157.03-.235.088-.235.058-.02.088-.068.088-.146-.078-.274-.108-.44-.088-.498.039-.078.078-.166.117-.264-.02-.371.01-.644.088-.82.098-.176.195-.362.293-.557.02-.137.039-.215.059-.234a.199.199 0 00.058-.147.416.416 0 00-.234-.058c-.078 0-.108-.05-.088-.147a.534.534 0 01.176-.234.534.534 0 00.175-.235c-.078-.253-.107-.4-.087-.439l.117-.176a.4.4 0 00-.03-.263 1.043 1.043 0 00-.087-.264 1.36 1.36 0 01-.03-.264c0-.097.03-.195.088-.293-.058-.156-.068-.283-.03-.38.177-.157.235-.284.177-.381a.393.393 0 00.087-.323c0-.136.02-.254.06-.351a4.43 4.43 0 01-.089-.235.362.362 0 00-.058-.205c-.059-.195-.127-.312-.206-.351a.783.783 0 01-.205-.147 2.098 2.098 0 01-.087-.263.719.719 0 00-.06-.264 1.907 1.907 0 01-.204-.117c-.059-.059-.049-.127.03-.205a.284.284 0 00-.177-.118.367.367 0 01-.146-.087c-.02-.137.049-.245.205-.323a3.5 3.5 0 00.264.117c.097.02.185.05.263.088.313-.078.537-.107.674-.088h.352c.078-.039.146-.068.205-.087a.581.581 0 01.263-.06c.313.02.557.03.733.03.176 0 .312.04.41.117.176-.02.322-.058.44-.117a1.18 1.18 0 01.468-.088c.176.078.332.118.469.118.156-.02.254.02.293.117 0 .097-.02.185-.059.263-.02.079-.048.157-.087.235.058.156.107.244.146.263.039.02.059.06.059.118.117.195.156.302.117.322a.46.46 0 00-.117.088c.097.234.166.37.205.41.039.039.048.098.029.176.156.254.224.42.205.498a.737.737 0 01-.088.176c.156.195.225.312.205.351v.147c.215.234.254.39.117.468l.147.381a.475.475 0 01.088.293c.02.117.078.205.175.264-.038.098-.048.176-.029.234.02.059.05.117.088.176.117.195.156.322.117.38-.02.06-.049.138-.088.235.118.176.166.284.147.322 0 .04.01.079.03.118.058.039.107.088.146.146.058.04.136.078.234.117.078.118.098.323.059.616.039.058.078.107.117.146.058.02.107.049.146.088.02.078.02.166 0 .264a.37.37 0 01-.088.175l.118.293c.058.098.107.205.146.323.137-.098.254-.196.352-.293l.351-.293c-.02-.059-.068-.098-.146-.118-.059-.019-.098-.068-.117-.146.039-.156.097-.293.175-.41.078-.137.108-.332.088-.586.098-.156.117-.234.059-.234-.059-.02-.088-.069-.088-.147.137-.215.215-.361.234-.44a.816.816 0 00.059-.35l.03-.323c.019-.078.087-.176.204-.293a.38.38 0 010-.293.282.282 0 01.235-.205c.02-.098.039-.176.058-.235.04-.078.078-.166.117-.263a.46.46 0 01.118-.088.524.524 0 00.146-.147c0-.117-.039-.205-.117-.263-.059-.059-.078-.166-.059-.323.098-.175.137-.273.117-.293l-.058-.117c.039-.097.049-.156.03-.175a.908.908 0 01-.06-.176.367.367 0 01.088-.147c.04-.058.04-.136 0-.234a4.93 4.93 0 00-.175-.205l-.059-.117a1.755 1.755 0 01-.293-.147V5.74a6.299 6.299 0 01-.351-.293 1.916 1.916 0 01-.118-.205c-.175-.137-.234-.234-.175-.293.097.02.185.03.263.03.098 0 .196.01.293.029.117-.04.235-.059.352-.059.137 0 .264-.01.38-.03.215.04.362.06.44.06l.293-.06a.652.652 0 01.205-.087l.235-.059c.214-.039.38-.078.498-.117a.335.335 0 01.351.088h.264c.097-.02.195-.03.293-.03.176.04.293.06.351.06a.368.368 0 00.147-.088.36.36 0 00.41.087.727.727 0 01.498 0c-.039.176-.098.264-.176.264a.365.365 0 00-.205 0c.059.098.127.137.205.117a.38.38 0 01.293 0c.137.176.176.313.117.41a.634.634 0 01-.175.206c.078.195.107.312.088.351l-.088.088c.039.059.078.146.117.264.058.117.039.215-.059.293a.255.255 0 01-.029.263 4.571 4.571 0 00-.147.205c.118.215.186.352.206.41a.417.417 0 01.058.235c0 .098-.02.205-.058.322.078.195.107.313.087.352a.341.341 0 00-.058.088c.039.078.068.156.088.234a.65.65 0 01.088.205.673.673 0 00.029.44c.059.136.107.273.146.41.02.215.059.38.118.498 0 .215-.01.38-.03.498a.473.473 0 00.03.293c.039.273.078.44.117.498.058.058.078.146.058.263-.039.176-.048.274-.029.293.04 0 .078.02.117.059.04.195.069.322.088.38a.285.285 0 01.059.147c0 .098-.04.176-.117.235l-.206.205c.04.058.088.127.147.205a.279.279 0 01.088.264c-.078.312-.088.527-.03.644a.546.546 0 01.118.352.199.199 0 01.058.146c.02.059.05.108.088.147 0 .097-.03.175-.088.234l-.117.117a.65.65 0 01.03.205l.058.176a.268.268 0 01.176.205c.02.078.02.166 0 .264a.92.92 0 01-.117.293.63.63 0 01-.117.205c.175-.04.292.01.351.146 0 .098-.02.166-.059.205-.02.04-.048.088-.087.147.039.137.048.283.029.44-.02.156-.049.292-.088.41.137.078.225.136.264.175.058.04.097.098.117.176.02.137.039.264.058.38.02.118.01.226-.029.323 0 .117.04.215.117.293.078.059.166.108.264.147 0 .215-.059.361-.176.44-.097.077-.156.214-.176.41.079.038.147.077.206.116.078.04.107.108.087.206-.078.156-.107.253-.088.293.04.019.06.058.06.117-.02.195-.05.322-.089.38a.371.371 0 00-.088.176zm6.153-6.064a.47.47 0 01-.118.38 1.477 1.477 0 00-.175.352.722.722 0 01.117.41c.02.137.02.284 0 .44l-.059.469c0 .156.02.302.059.44a1.104 1.104 0 00-.088.439l.059.468c-.059.254-.069.44-.03.557.04.098.059.225.059.38-.117.255-.166.43-.147.528.04.098.04.176 0 .235.098.293.137.468.118.527-.02.058-.01.127.029.205-.04.039-.059.107-.059.205 0 .098-.02.176-.058.234-.137 0-.215-.039-.235-.117a.285.285 0 00-.117-.176c-.059.02-.156.03-.293.03a.859.859 0 01-.322-.059.782.782 0 00-.205.147c-.04.058-.108.068-.205.029a.372.372 0 00-.088.176c-.02.058-.069.107-.147.146-.136-.156-.215-.273-.234-.351a.417.417 0 00-.059-.235c-.332.215-.556.274-.674.176a.682.682 0 01-.615-.117c-.02-.313.02-.498.117-.557a1.665 1.665 0 01-.087-.293c0-.117-.01-.224-.03-.322.04-.078.078-.176.117-.293a.632.632 0 000-.38c-.078-.216-.107-.382-.087-.499a.928.928 0 00.029-.41c.039-.254.088-.42.146-.498.059-.078.069-.176.03-.293a2.058 2.058 0 01-.117-.498.655.655 0 01.117-.469 1.664 1.664 0 01-.088-.293.86.86 0 00-.059-.322c0-.156.01-.283.03-.381a.327.327 0 00-.03-.147v-.175c-.098-.098-.137-.264-.117-.498.02-.235.078-.39.176-.469a2.38 2.38 0 01-.117-.938c.02-.37.01-.722-.03-1.054.078-.117.098-.274.059-.469.059-.176.078-.303.059-.38a.33.33 0 01.029-.235c-.059-.098-.088-.244-.088-.44.02-.195.078-.332.176-.41a3.481 3.481 0 01-.117-.264c-.02-.097 0-.175.058-.234a1.932 1.932 0 00-.117-.322 1.535 1.535 0 01-.088-.352c-.02-.078-.01-.127.03-.146.038-.04.048-.108.029-.205.136-.176.214-.323.234-.44.02-.117.098-.175.234-.175-.234-.254-.38-.4-.44-.44a.367.367 0 00-.087-.146c-.04-.059-.049-.137-.03-.235.06-.234.05-.41-.029-.527a2.104 2.104 0 00-.263-.322 2.765 2.765 0 00-.059-.205.47.47 0 010-.235c.059-.43-.078-.674-.41-.732-.078-.157-.137-.235-.176-.235-.02 0-.049-.02-.088-.058-.097-.196-.215-.274-.351-.235a.317.317 0 01-.293-.088c0-.097-.03-.156-.088-.175a.282.282 0 01-.147-.117c0-.079.03-.127.088-.147l.176-.059a.545.545 0 00.352.118.51.51 0 00.263-.147.393.393 0 01.323-.088c.195.098.302.117.322.059.039-.059.107-.088.205-.088.137.215.234.303.293.264a.783.783 0 00.205-.147.681.681 0 01.352-.03c.156.02.283.06.38.118a.722.722 0 01.352-.03c.117 0 .254-.009.41-.029.156.059.254.069.293.03a.284.284 0 01.176-.117c.059.02.098.058.117.117l.117.117a.47.47 0 00.235 0 .74.74 0 00.175-.088c.313-.117.47-.098.47.059 0 .156-.02.312-.06.468.02.059.04.108.06.147.038.039.067.088.087.146a3.252 3.252 0 01-.264.381.26.26 0 00-.029.117c-.02.098 0 .186.059.264.078.078.097.186.058.322-.156.196-.215.303-.175.323l.175.058c.059.254.069.4.03.44-.04.02-.069.068-.088.146.039.156.078.264.117.322a.783.783 0 00-.059.293v.264a1.05 1.05 0 01-.088.264c-.02.078-.029.166-.029.263 0 .157.03.303.088.44a.434.434 0 010 .38c.059.587.049 1.036-.03 1.348.02.254.04.45.06.586a.46.46 0 01-.06.322c.02.06.05.108.089.147.039.04.058.088.058.146.02.196-.03.352-.146.47-.117.234-.137.38-.059.439a.534.534 0 01.176.234c.02.156 0 .274-.059.352a.551.551 0 00-.029.322c.02.098.049.195.088.293.039.078.068.166.088.264-.137.097-.196.185-.176.263.02.059.02.108 0 .147a.783.783 0 00.146.205c.059.039.098.107.118.205zM69.972 4.48c.039.215.039.352 0 .41a.96.96 0 01-.117.147h-.381c-.079.215-.166.322-.264.322a.197.197 0 00-.176.088c-.117.04-.185.078-.205.117 0 .02-.02.05-.058.088a3.656 3.656 0 01-.293.235c-.06.039-.088.107-.088.205a.402.402 0 01-.205.088c-.079.02-.147.039-.206.058-.078.371-.156.606-.234.703a.73.73 0 00-.176.323c.02.195.059.312.117.351.06.04.108.078.147.117-.04.137-.088.215-.147.235-.039 0-.078.02-.117.058 0 .079.01.147.03.205a.37.37 0 01.087.176c0 .156-.039.274-.117.352-.078.058-.107.166-.088.322.157.215.215.352.176.41a.37.37 0 00-.088.147c.157.234.215.38.176.44a.963.963 0 00-.117.146c.058.234.068.37.03.41a.342.342 0 00-.06.088c.06.254.05.4-.029.44a.738.738 0 00-.175.087c.097.078.175.147.234.205a.533.533 0 01.176.235c-.02.097-.01.175.029.234.04.058.049.137.03.234 0 .059-.02.108-.06.147a.368.368 0 00-.087.146l.058.176c.04.059.05.117.03.176-.118.234-.166.39-.147.469.02.058.01.127-.03.205.02.058.06.117.118.175.059.059.088.147.088.264.02.137-.02.293-.117.469 0 .098.02.176.058.234a1.3 1.3 0 01.118.235c-.02.097-.059.166-.118.205l-.175.117v.556c0 .118-.04.205-.118.264.04.04.088.108.147.205.058.078.049.166-.03.264a.783.783 0 00.206.146.37.37 0 01.175.205c0 .157-.068.245-.205.264.02.137.02.225 0 .264a.342.342 0 00-.058.088c.039.097.058.234.058.41.02.176-.02.283-.117.322 0 .176.01.274.03.293.039.02.048.049.029.088a.37.37 0 01-.176.205.262.262 0 00-.176.146.399.399 0 00-.029.264c.02.078.01.156-.03.235.06.195.108.312.147.351.059.04.108.088.147.147-.02.097-.01.244.029.44a.786.786 0 00-.147.468.872.872 0 01-.117.44c.04.195.069.292.088.292.04 0 .078.02.117.059 0 .137-.068.224-.205.264-.136.039-.224-.01-.263-.147a.645.645 0 00-.264.117.31.31 0 01-.264 0c-.234.078-.39.069-.468-.03-.04.02-.108.06-.206.118-.078.059-.156.078-.234.059-.156-.078-.283-.098-.38-.059-.079.02-.167.04-.264.059a.964.964 0 01-.235.029.39.39 0 01-.176-.146c.059-.118.05-.215-.029-.293-.059-.098-.059-.225 0-.381-.117-.137-.176-.225-.176-.264a.271.271 0 000-.176.65.65 0 00-.205-.03c-.058 0-.097-.038-.117-.116-.02-.196-.088-.313-.205-.352a.913.913 0 01-.117-.322 2.178 2.178 0 00-.088-.38c-.254-.138-.322-.284-.205-.44a.37.37 0 01-.088-.176.36.36 0 00-.059-.205 4.412 4.412 0 00-.293-.557c-.254-.137-.42-.244-.498-.322-.039-.098-.039-.176 0-.235.04-.078.04-.175 0-.293-.136-.156-.215-.293-.234-.41a.525.525 0 00-.147-.293c-.234-.254-.322-.527-.263-.82a2.326 2.326 0 00-.323-.322c-.058-.04-.087-.108-.087-.205.058-.098.127-.117.205-.059.078.059.136.107.175.147.079-.274.059-.41-.058-.41-.117 0-.196-.06-.235-.176-.058-.157-.127-.244-.205-.264a.443.443 0 01-.175-.146.733.733 0 01-.088-.381c0-.176.02-.323.058-.44-.156-.195-.224-.332-.205-.41a.656.656 0 01.088-.234c-.039-.098-.107-.147-.205-.147-.098-.02-.137-.098-.117-.234h-.264c-.078 0-.137-.02-.176-.059-.02.117 0 .196.059.235.059.02.098.078.117.175-.058.215-.068.342-.03.381.04.02.06.069.06.147a.443.443 0 01-.147.175l-.117.118c-.02.175 0 .312.058.41.078.098.098.225.059.38.02.079.049.157.088.235.039.078.068.166.088.264a.6.6 0 010 .263.33.33 0 00.03.235c-.079.058-.118.176-.118.351 0 .157.039.264.117.323.117.039.235.068.352.088.136.019.185.117.146.293a1.282 1.282 0 01-.293.263c-.117.059-.185.176-.205.352-.02.234-.03.4-.03.498v.322a1.16 1.16 0 01-.175.146.524.524 0 00-.146.147c.058.254.107.4.146.44.04.019.068.058.088.117-.02.273-.049.468-.088.586.02.351.059.615.117.79.078.157.176.284.293.381 0 .098-.02.176-.058.235l-.118.176c.02.078.059.175.118.293.058.117.029.195-.088.234a.94.94 0 00-.44-.059c-.117 0-.195.02-.234.059 0 .254.01.42.03.498.019.059.009.127-.03.205a.247.247 0 01-.205.03.363.363 0 00-.205 0c-.04.136-.098.263-.176.38a.448.448 0 01-.293.235c-.02.097-.059.166-.117.205-.04.039-.05.117-.03.234-.058.04-.117.078-.175.117-.04.04-.108.059-.205.059a.44.44 0 01-.088.41c-.098.137-.196.127-.293-.03a.282.282 0 00-.117.147.37.37 0 01-.088.147 8.15 8.15 0 01-.088.293c-.02.078-.04.166-.059.263a.361.361 0 00-.176.264.463.463 0 01-.175.293 1.468 1.468 0 01-.264-.176.91.91 0 01-.059-.176.39.39 0 01.147-.175c.078-.059.068-.137-.03-.235.079-.195.098-.302.06-.322-.02-.02-.03-.059-.03-.117.058-.235.078-.361.058-.381 0-.371.059-.664.176-.879-.02-.156-.02-.244 0-.264.02-.02.03-.049.03-.088a1.3 1.3 0 00-.118-.234.417.417 0 01-.058-.234.682.682 0 01.029-.352c.04-.098.088-.195.146-.293-.058-.234-.107-.37-.146-.41-.039-.039-.049-.107-.03-.205.06-.156.098-.254.118-.293.02-.059.039-.107.058-.146-.019-.118-.058-.196-.117-.235-.058-.058-.078-.156-.058-.293.039-.156.029-.244-.03-.264-.058-.02-.078-.068-.058-.146.137-.195.195-.313.176-.352a.47.47 0 010-.234c-.176-.254-.235-.4-.176-.44a1.02 1.02 0 00.205-.204 4.617 4.617 0 00-.147-.206c-.039-.078-.039-.185 0-.322a.367.367 0 00-.146-.088c-.059-.02-.098-.068-.117-.146.058-.156.127-.283.205-.381a1.65 1.65 0 00.264-.352.284.284 0 00-.176-.117c-.059-.039-.078-.117-.059-.234.02-.078.049-.127.088-.147l.117-.117c-.078-.117-.078-.215 0-.293a.44.44 0 00.088-.351c.117-.118.225-.186.322-.205l-.117-.293a.755.755 0 01.03-.352.756.756 0 00-.264-.293c-.117-.078-.186-.205-.205-.38.175-.235.254-.46.234-.675.059-.234.03-.4-.088-.498-.097-.117-.088-.224.03-.322a3.682 3.682 0 01-.118-.352.394.394 0 01.117-.351.367.367 0 00-.087-.147c-.02-.039-.02-.107 0-.205l-.118-.117-.117-.117c-.039-.156-.02-.254.059-.293a.475.475 0 00.205-.234.58.58 0 01.058-.264.457.457 0 000-.322c.02-.235 0-.362-.058-.381a.197.197 0 01-.088-.176c-.02-.098 0-.156.059-.176a1.54 1.54 0 00.234-.146c-.04-.156-.078-.322-.117-.498-.02-.196.039-.332.176-.41-.118-.157-.206-.245-.264-.264a.332.332 0 01-.117-.117c-.02-.215-.078-.342-.176-.381a.383.383 0 01-.176-.176c.04-.117.03-.205-.03-.264a1.043 1.043 0 01-.087-.263c-.098.02-.205.029-.322.029-.117-.02-.176-.088-.176-.205.059-.195.039-.303-.059-.322-.097-.02-.136-.108-.117-.264-.195-.04-.303-.117-.322-.234a2.082 2.082 0 00-.264-.088.274.274 0 01-.205-.147c-.02-.176-.049-.273-.088-.293-.058-.02-.088-.068-.088-.146-.02-.098.02-.147.117-.147.098-.02.196-.048.294-.088.136 0 .214.01.234.03.02.02.049.039.088.058.195 0 .37.01.527.03.176 0 .342-.02.498-.059.254.078.44.088.557.03.137-.06.293-.098.469-.118.214.059.37.078.468.059.117-.02.196.02.235.117.156-.02.293-.04.41-.059.137-.02.254-.048.351-.088.137 0 .254-.01.352-.029.117-.02.244-.039.38-.058.06.156.06.253 0 .293-.038.02-.068.058-.087.117.332.097.566.146.703.146a.207.207 0 01-.176.176c-.078 0-.117.049-.117.146.02.06.059.098.117.118h.176c.059 0 .107.01.146.029.04.02.06.059.06.117-.06.156-.07.254-.03.293.039.04.078.088.117.147l.059.439c.039.117.02.225-.059.322.098.078.205.137.322.176.137.02.244.078.323.176a.653.653 0 01.058.293c.02.117-.01.195-.088.234.059.176.078.274.059.293-.02.02-.03.049-.03.088a.65.65 0 01.03.205c0 .078.01.166.03.264.273.215.458.44.556.674.02.175.068.283.146.322.078.039.137.098.176.176-.039.097-.03.175.03.234.058.04.068.107.029.205.078.059.156.108.234.147.078.02.127.088.146.205.02.156.06.254.118.293.058.02.097.068.117.146.097.215.137.352.117.41 0 .059-.01.117-.03.176.196.117.294.215.294.293 0 .059-.02.127-.059.205l-.117.235a.52.52 0 00-.059.234c.176 0 .284.039.323.117-.02.117-.04.244-.059.38 0 .118.049.225.147.323.214.059.312.137.293.235a.745.745 0 00.175.087c.059.02.098.079.117.176-.058.215-.068.332-.029.352.04.02.069.049.088.088.04.039.059.088.059.146 0 .059.01.117.029.176.098-.04.137-.098.117-.176a5.84 5.84 0 01-.058-.264c.097-.253.097-.4 0-.439-.079-.039-.108-.137-.088-.293.058-.215.127-.361.205-.44a.688.688 0 00.146-.292.36.36 0 00-.058-.205.862.862 0 01-.03-.205 1.906 1.906 0 00-.205-.176.78.78 0 01-.146-.205v-.47c.02-.312.058-.526.117-.644a.813.813 0 01.234-.322c-.078-.234-.097-.352-.058-.352.058-.019.097-.048.117-.087-.04-.079-.088-.118-.147-.118a.37.37 0 01-.146-.087.511.511 0 01-.03-.381c.06-.137.137-.225.235-.264a4.144 4.144 0 00-.352-.44c-.078-.078-.107-.195-.087-.351a.274.274 0 01.146-.205 2.05 2.05 0 01.293-.147c-.039-.097-.137-.166-.293-.205-.137-.058-.176-.175-.117-.351.097-.195.127-.303.088-.322-.02-.04-.02-.098 0-.176 0-.078.01-.137.03-.176.038-.04.077-.078.116-.117a.467.467 0 000-.235 1.146 1.146 0 00-.088-.234c0-.234-.029-.38-.088-.44-.039-.078-.029-.165.03-.263-.137-.156-.196-.264-.176-.322a.965.965 0 00.03-.235c.195-.254.37-.41.527-.468.175-.079.332-.069.468.029a.906.906 0 00.176-.059c.059-.02.127-.039.205-.058.196.156.342.215.44.175.117-.058.205-.107.263-.146.215-.02.362-.04.44-.059a.591.591 0 01.322-.029c.195.078.332.127.41.147a.72.72 0 00.264-.06c.098.04.205.05.322.03a1.04 1.04 0 00.293-.088.754.754 0 00.498.059c.156-.059.303-.107.44-.147.175.06.283.079.322.06.039-.04.098-.06.176-.06z" fill="#323232"/></svg>