<svg width="89" height="24" viewBox="0 0 89 24" fill="none" xmlns="http://www.w3.org/2000/svg">
<path d="M0.0158203 4.05C0.0158203 3.79 0.12582 3.59 0.34582 3.45C1.48582 2.69 3.09582 2.06 5.17582 1.56C6.03582 1.38 6.74582 1.29 7.30582 1.29C10.1458 1.29 12.1958 3.03 13.4558 6.51C13.8958 7.75 14.1158 9.06 14.1158 10.44C14.1158 12.52 13.5658 14.62 12.4658 16.74C11.3658 18.86 10.2358 20.57 9.07582 21.87C8.43582 22.55 7.75582 22.89 7.03582 22.89C6.31582 22.89 5.75582 22.61 5.35582 22.05C4.95582 21.49 4.75582 20.78 4.75582 19.92C4.75582 19.04 4.91582 18.06 5.23582 16.98C5.55582 15.9 6.05582 15.22 6.73582 14.94C6.63582 15.4 6.58582 15.89 6.58582 16.41C6.58582 16.91 6.75582 17.53 7.09582 18.27C7.45582 19.01 7.87582 19.38 8.35582 19.38C8.83582 19.38 9.22582 19.1 9.52582 18.54C10.7658 16.3 11.3858 13.75 11.3858 10.89C11.3858 7.49 10.4958 5.29 8.71582 4.29C8.19582 4.01 7.69582 3.87 7.21582 3.87C6.73582 3.87 6.21582 4.01 5.65582 4.29C5.81582 5.15 5.89582 6.24 5.89582 7.56C5.89582 8.86 5.66582 10.95 5.20582 13.83C4.76582 16.69 4.54582 18.87 4.54582 20.37V21.33C4.54582 21.85 4.42582 22.19 4.18582 22.35C3.94582 22.51 3.69582 22.59 3.43582 22.59C2.69582 22.59 2.17582 21.22 1.87582 18.48C1.75582 17.38 1.65582 16.64 1.57582 16.26C1.63582 16.24 1.72582 16.23 1.84582 16.23C2.20582 16.23 2.62582 16.49 3.10582 17.01V16.23C3.08582 14.65 3.29582 11.77 3.73582 7.59C3.75582 7.43 3.76582 7.14 3.76582 6.72C3.76582 6.28 3.72582 5.83 3.64582 5.37C3.50582 5.45 3.22582 5.66 2.80582 6C1.82582 6.8 1.12582 7.2 0.70582 7.2C0.30582 7.2 0.10582 6.85 0.10582 6.15L0.13582 5.22L0.0158203 4.05ZM20.5729 1.56C20.5729 2.22 20.2929 3.14 19.7329 4.32C19.1729 5.48 18.6429 6.32 18.1429 6.84C18.0629 6.96 17.9429 7.02 17.7829 7.02C17.2829 7.02 17.0329 6.62 17.0329 5.82C17.0329 5.02 17.3829 3.9 18.0829 2.46C18.2229 2.16 18.3129 1.85 18.3529 1.53C18.3929 1.21 18.4129 1.03 18.4129 0.989999C18.4329 0.929999 18.4429 0.889999 18.4429 0.869999C18.4629 0.829998 18.4729 0.789998 18.4729 0.749999C18.4929 0.689999 18.5029 0.649998 18.5029 0.629999C18.5229 0.589999 18.5429 0.559999 18.5629 0.539998C18.5829 0.499999 18.6029 0.469999 18.6229 0.449999C18.6829 0.409999 18.8429 0.389998 19.1029 0.389998C19.3629 0.389998 19.6729 0.499999 20.0329 0.719999C20.3929 0.939999 20.5729 1.22 20.5729 1.56ZM20.8729 14.88C21.0929 14.54 21.2429 14.37 21.3229 14.37C21.4229 14.37 21.4929 14.62 21.5329 15.12C21.5929 15.62 21.6229 16.29 21.6229 17.13C21.6229 17.95 21.4229 18.84 21.0229 19.8C20.6429 20.74 20.0829 21.5 19.3429 22.08C18.9229 22.4 18.5329 22.56 18.1729 22.56C17.8329 22.56 17.5429 22.49 17.3029 22.35C17.0829 22.19 16.8829 21.94 16.7029 21.6C16.4029 21.12 16.1029 20.5 15.8029 19.74C15.5229 18.98 15.3829 18.16 15.3829 17.28C15.3829 16.4 15.4529 15.51 15.5929 14.61C15.7329 13.71 15.8029 13.11 15.8029 12.81C15.8029 12.49 15.6429 12.09 15.3229 11.61C15.0029 11.11 14.8429 10.81 14.8429 10.71C14.8429 10.61 14.8729 10.51 14.9329 10.41C15.0129 10.29 15.1029 10.18 15.2029 10.08C15.3229 9.96 15.4329 9.86 15.5329 9.78C15.6529 9.7 15.7829 9.6 15.9229 9.48C16.3829 9.1 16.8029 8.91 17.1829 8.91C17.5629 8.91 17.8929 9.04 18.1729 9.3C18.4729 9.56 18.6129 10.01 18.5929 10.65C18.5929 11.29 18.4429 12.5 18.1429 14.28C17.7629 16.56 17.5729 17.87 17.5729 18.21C17.5729 18.55 17.6629 18.72 17.8429 18.72C18.2429 18.72 19.2529 17.44 20.8729 14.88ZM28.7399 18.24C27.0999 21.18 25.8499 22.65 24.9899 22.65C24.3699 22.65 23.8099 22.27 23.3099 21.51C23.1699 21.31 23.0199 21 22.8599 20.58C22.6999 20.14 22.4999 19.74 22.2599 19.38C22.0399 19.02 21.9299 18.54 21.9299 17.94C21.9299 17.32 22.0499 16.77 22.2899 16.29C23.9299 13.05 25.6599 10.83 27.4799 9.63C27.7199 9.45 27.9999 9.36 28.3199 9.36C28.6399 9.36 29.0399 9.54 29.5199 9.9C29.7999 10.18 29.9699 10.42 30.0299 10.62C30.1299 11.06 30.1799 11.33 30.1799 11.43C30.8799 11.67 31.2299 12.11 31.2299 12.75C31.2299 13.19 31.1099 14.19 30.8699 15.75C30.6299 17.29 30.4899 18.44 30.4499 19.2C30.4499 19.62 30.5899 19.83 30.8699 19.83C31.1899 19.83 31.7599 19.27 32.5799 18.15C33.4199 17.03 33.8999 16.47 34.0199 16.47C34.2199 16.47 34.3199 16.8 34.3199 17.46L34.2599 18.93C34.2599 19.49 34.0099 20.26 33.5099 21.24C33.0099 22.2 32.3699 22.68 31.5899 22.68C31.1099 22.68 30.7299 22.52 30.4499 22.2C30.3499 22.1 30.1999 21.9 29.9999 21.6C29.3799 20.7 28.9599 19.58 28.7399 18.24ZM29.0099 11.31C26.4899 13.61 24.8899 16.24 24.2099 19.2C26.2299 17.46 27.8299 14.83 29.0099 11.31ZM42.2389 17.34C42.2389 18.62 41.8289 19.86 41.0089 21.06C40.1889 22.26 39.1489 22.86 37.8889 22.86C36.8889 22.86 36.0889 22.26 35.4889 21.06C34.9089 19.84 34.6189 18.56 34.6189 17.22C34.6189 15.86 34.9789 14.38 35.6989 12.78C36.4389 11.18 37.3989 9.9 38.5789 8.94C38.8389 8.7 39.1689 8.58 39.5689 8.58C39.9689 8.58 40.4389 8.81 40.9789 9.27C41.2589 9.53 41.3989 10.07 41.3989 10.89C41.3989 11.71 41.1589 12.99 40.6789 14.73C40.5589 15.17 40.3989 15.39 40.1989 15.39C39.8189 15.39 39.5289 14.32 39.3289 12.18C39.3089 11.84 39.2889 11.63 39.2689 11.55C38.2889 12.63 37.5189 13.86 36.9589 15.24C36.4189 16.6 36.1489 17.92 36.1489 19.2C36.1489 19.86 36.3689 20.19 36.8089 20.19C37.5689 20.19 38.7689 19.51 40.4089 18.15C40.7089 17.89 40.9289 17.7 41.0689 17.58C41.2089 17.44 41.4189 17.25 41.6989 17.01C41.9789 16.75 42.1389 16.6 42.1789 16.56C42.2189 16.74 42.2389 17 42.2389 17.34ZM52.6893 18C52.6893 19.58 52.3993 20.79 51.8193 21.63C51.3793 22.19 50.9993 22.47 50.6793 22.47C50.3593 22.47 50.0393 22.31 49.7193 21.99C48.5993 20.69 48.0393 19.13 48.0393 17.31C48.0393 16.71 48.1093 16.09 48.2493 15.45C48.4893 14.35 48.6093 13.64 48.6093 13.32C48.6093 13 48.5893 12.84 48.5493 12.84C48.4293 12.84 47.6393 15.59 46.1793 21.09C45.9993 21.65 45.8093 21.93 45.6093 21.93C45.0693 21.93 44.4293 21 43.6893 19.14C43.2893 18.26 43.0893 17.2 43.0893 15.96C43.0893 14.56 43.1693 13.38 43.3293 12.42C43.5093 11.46 43.6193 10.87 43.6593 10.65C43.6993 10.41 43.7693 10.04 43.8693 9.54C43.9893 9.02 44.0693 8.68 44.1093 8.52C44.3493 7.52 44.5093 6.81 44.5893 6.39C44.0893 6.39 43.8393 6.24 43.8393 5.94C43.8393 5.8 43.8993 5.65 44.0193 5.49C45.1193 3.75 45.8993 2.21 46.3593 0.869999C46.4393 0.529999 46.5993 0.359999 46.8393 0.359999C47.1593 0.359999 47.3993 0.669999 47.5593 1.29C47.7193 1.91 47.7993 2.45 47.7993 2.91C47.7993 4.07 47.4193 5 46.6593 5.7C45.7593 11.28 45.3093 14.21 45.3093 14.49C45.3093 14.77 45.3493 14.91 45.4293 14.91C45.5093 14.91 45.6493 14.73 45.8493 14.37C46.0693 13.99 46.4093 13.28 46.8693 12.24C47.3293 11.18 47.7093 10.4 48.0093 9.9C48.4493 9.16 49.0093 8.79 49.6893 8.79C50.7693 8.79 51.3093 9.8 51.3093 11.82C51.3093 13.46 50.9293 15.53 50.1693 18.03C50.1493 18.11 50.1393 18.19 50.1393 18.27C50.1393 18.49 50.2393 18.6 50.4393 18.6C50.6593 18.6 51.0293 18.31 51.5493 17.73C52.0893 17.15 52.4093 16.86 52.5093 16.86C52.6293 16.86 52.6893 17.24 52.6893 18ZM59.0396 1.56C59.0396 2.22 58.7596 3.14 58.1996 4.32C57.6396 5.48 57.1096 6.32 56.6096 6.84C56.5296 6.96 56.4096 7.02 56.2496 7.02C55.7496 7.02 55.4996 6.62 55.4996 5.82C55.4996 5.02 55.8496 3.9 56.5496 2.46C56.6896 2.16 56.7796 1.85 56.8196 1.53C56.8596 1.21 56.8796 1.03 56.8796 0.989999C56.8996 0.929999 56.9096 0.889999 56.9096 0.869999C56.9296 0.829998 56.9396 0.789998 56.9396 0.749999C56.9596 0.689999 56.9696 0.649998 56.9696 0.629999C56.9896 0.589999 57.0096 0.559999 57.0296 0.539998C57.0496 0.499999 57.0696 0.469999 57.0896 0.449999C57.1496 0.409999 57.3096 0.389998 57.5696 0.389998C57.8296 0.389998 58.1396 0.499999 58.4996 0.719999C58.8596 0.939999 59.0396 1.22 59.0396 1.56ZM59.3396 14.88C59.5596 14.54 59.7096 14.37 59.7896 14.37C59.8896 14.37 59.9596 14.62 59.9996 15.12C60.0596 15.62 60.0896 16.29 60.0896 17.13C60.0896 17.95 59.8896 18.84 59.4896 19.8C59.1096 20.74 58.5496 21.5 57.8096 22.08C57.3896 22.4 56.9996 22.56 56.6396 22.56C56.2996 22.56 56.0096 22.49 55.7696 22.35C55.5496 22.19 55.3496 21.94 55.1696 21.6C54.8696 21.12 54.5696 20.5 54.2696 19.74C53.9896 18.98 53.8496 18.16 53.8496 17.28C53.8496 16.4 53.9196 15.51 54.0596 14.61C54.1996 13.71 54.2696 13.11 54.2696 12.81C54.2696 12.49 54.1096 12.09 53.7896 11.61C53.4696 11.11 53.3096 10.81 53.3096 10.71C53.3096 10.61 53.3396 10.51 53.3996 10.41C53.4796 10.29 53.5696 10.18 53.6696 10.08C53.7896 9.96 53.8996 9.86 53.9996 9.78C54.1196 9.7 54.2496 9.6 54.3896 9.48C54.8496 9.1 55.2696 8.91 55.6496 8.91C56.0296 8.91 56.3596 9.04 56.6396 9.3C56.9396 9.56 57.0796 10.01 57.0596 10.65C57.0596 11.29 56.9096 12.5 56.6096 14.28C56.2296 16.56 56.0396 17.87 56.0396 18.21C56.0396 18.55 56.1296 18.72 56.3096 18.72C56.7096 18.72 57.7196 17.44 59.3396 14.88ZM71.6467 19.5C71.6467 20.6 71.3567 21.15 70.7767 21.15C70.3167 21.15 69.9167 20.91 69.5767 20.43C69.2367 19.95 68.9767 19.52 68.7967 19.14C68.6167 18.74 68.4367 18.37 68.2567 18.03C68.0767 17.67 67.9167 17.25 67.7767 16.77C67.7567 16.83 67.6967 17.04 67.5967 17.4L67.3567 18.21C67.1167 19.09 66.9267 19.68 66.7867 19.98C66.6667 20.26 66.5267 20.58 66.3667 20.94C66.2267 21.28 66.0767 21.56 65.9167 21.78C65.7567 21.98 65.5867 22.18 65.4067 22.38C65.0467 22.8 64.6067 23.01 64.0867 23.01C63.5867 23.01 63.0967 22.72 62.6167 22.14C61.7967 21.18 61.1967 19.98 60.8167 18.54C60.6367 17.94 60.5467 17.25 60.5467 16.47C60.5467 15.69 60.7867 14.83 61.2667 13.89C61.7467 12.93 62.4667 11.88 63.4267 10.74C64.3867 9.6 65.2767 9.03 66.0967 9.03C66.5367 9.03 67.0367 9.24 67.5967 9.66C67.7167 8.58 67.9167 7.05 68.1967 5.07C68.4767 3.09 68.6467 1.8 68.7067 1.2C68.7667 0.579999 68.9767 0.27 69.3367 0.27C69.7167 0.27 69.9867 0.47 70.1467 0.869999C70.3267 1.25 70.4167 1.63 70.4167 2.01C70.4167 2.39 70.3867 2.74 70.3267 3.06C69.7667 8.78 69.4867 13.43 69.4867 17.01C69.4867 17.55 69.6367 17.82 69.9367 17.82C70.2367 17.82 70.5567 17.59 70.8967 17.13C71.2567 16.65 71.4867 16.41 71.5867 16.41C71.7067 16.41 71.7667 16.49 71.7667 16.65L71.5567 17.94L71.6467 19.5ZM66.8167 12.21C66.8167 11.97 66.6967 11.85 66.4567 11.85C66.2367 11.85 65.9667 11.95 65.6467 12.15C64.6067 12.73 63.7467 13.63 63.0667 14.85C62.4067 16.07 62.0767 17.29 62.0767 18.51C62.0767 19.25 62.3067 19.62 62.7667 19.62C62.9467 19.62 63.1467 19.51 63.3667 19.29C64.4867 18.11 65.5967 15.93 66.6967 12.75C66.7767 12.55 66.8167 12.37 66.8167 12.21ZM79.3204 15.12C79.3204 17.54 78.6204 19.69 77.2204 21.57C76.7204 22.21 76.1604 22.53 75.5404 22.53C74.9404 22.53 74.4604 22.38 74.1004 22.08C72.8004 21 72.1504 19.15 72.1504 16.53C72.1504 14.71 72.6404 12.39 73.6204 9.57C73.7004 9.37 73.7704 9.25 73.8304 9.21C73.8904 9.15 73.9904 9.12 74.1304 9.12C74.2904 9.12 74.4804 9.02 74.7004 8.82C74.9204 8.6 75.2804 8.49 75.7804 8.49C76.3004 8.49 76.8204 8.68 77.3404 9.06C77.8604 9.44 78.2404 9.95 78.4804 10.59C79.0404 12.09 79.3204 13.6 79.3204 15.12ZM76.8304 13.17C76.8304 11.33 76.6004 10.41 76.1404 10.41C75.9204 10.41 75.7204 10.58 75.5404 10.92C74.7404 12.82 74.3404 15.09 74.3404 17.73C74.3404 18.39 74.3504 18.89 74.3704 19.23C76.0104 17.97 76.8304 15.95 76.8304 13.17ZM83.9221 4.68C83.2221 4.24 82.8721 3.85 82.8721 3.51C82.8721 3.29 83.1221 3.14 83.6221 3.06C84.1221 2.98 84.8021 2.79 85.6621 2.49C86.5221 2.19 87.0321 2.04 87.1921 2.04C87.3721 2.04 87.5521 2.13 87.7321 2.31C87.9321 2.47 88.0321 2.7 88.0321 3C88.0321 3.3 87.8121 3.96 87.3721 4.98C86.9521 5.98 86.4221 7.18 85.7821 8.58C85.1421 9.98 84.6621 11.12 84.3421 12C84.0221 12.86 83.7921 13.67 83.6521 14.43C83.5321 15.19 83.4621 15.69 83.4421 15.93C83.4421 16.15 83.3821 16.26 83.2621 16.26C82.9821 16.26 82.7121 15.88 82.4521 15.12C82.2121 14.34 82.0921 13.36 82.0921 12.18C82.0921 11 82.2521 9.69 82.5721 8.25C82.9121 6.79 83.3621 5.6 83.9221 4.68ZM83.2621 22.68C82.7821 22.68 82.3721 22.45 82.0321 21.99C81.7121 21.51 81.5521 20.95 81.5521 20.31C81.5521 19.63 81.7121 19.07 82.0321 18.63C82.3721 18.17 82.7821 17.94 83.2621 17.94C83.7221 17.94 84.1121 18.17 84.4321 18.63C84.7721 19.07 84.9421 19.63 84.9421 20.31C84.9421 20.95 84.7721 21.51 84.4321 21.99C84.1121 22.45 83.7221 22.68 83.2621 22.68Z" fill="#323232"/>
</svg>
