<svg xmlns="http://www.w3.org/2000/svg" x="0px" y="0px" viewBox="0,0,256,256"><g fill="currentColor" fillRule="nonzero" stroke="none" strokeWidth="1" strokeLinecap="butt" strokeLinejoin="miter" strokeMiterlimit="10" strokeDasharray="" strokeDashoffset="0" fontFamily="none" fontWeight="none" fontSize="none" textAnchor="none"><g transform="scale(5.33333,5.33333)"><path d="M8.42578,4.97852c-1.88616,0 -3.44727,1.5611 -3.44727,3.44727v2.55273c-0.00765,0.54095 0.27656,1.04412 0.74381,1.31683c0.46725,0.27271 1.04514,0.27271 1.51238,0c0.46725,-0.27271 0.75146,-0.77588 0.74381,-1.31683v-2.55273c0,-0.26384 0.18343,-0.44727 0.44727,-0.44727h12.25195c0.21085,0 0.39162,0.12399 0.4668,0.32031c0,0.00065 0,0.0013 0,0.00195l9.17383,23.92578c0.05938,0.15494 0.04649,0.29165 -0.00391,0.40625c-0.01672,0.01783 -0.033,0.03606 -0.04883,0.05469l-0.10352,0.125c-0.08371,0.05471 -0.18295,0.09375 -0.31055,0.09375h-7.16406c-0.79778,-0.20711 -1.61323,0.26821 -1.82617,1.06445c-0.09367,0.3096 -0.08477,0.64119 0.02539,0.94531l1.08398,6.00781c0.17811,1.09012 1.0779,1.79995 2.07031,1.98047c0.18911,0.07952 0.39252,0.1194 0.59766,0.11719h14.93555c1.88616,0 3.44727,-1.5611 3.44727,-3.44727v-24.0957c0,-1.88616 -1.5611,-3.44727 -3.44727,-3.44727h-8.15234c-0.54095,-0.00765 -1.04412,0.27656 -1.31683,0.74381c-0.27271,0.46725 -0.27271,1.04514 0,1.51238c0.27271,0.46725 0.77588,0.75146 1.31683,0.74381h8.15234c0.26384,0 0.44727,0.18343 0.44727,0.44727v24.0957c0,0.26384 -0.18343,0.44727 -0.44727,0.44727h-11.48437l4.48633,-5.42187c0.12684,-0.14976 0.22306,-0.32295 0.2832,-0.50977c0.4904,-0.86615 0.64854,-1.92298 0.25977,-2.9375l-0.3125,-0.81641c1.93535,1.64877 3.55691,2.58011 3.66797,2.64258l0.78125,0.43945l0.87891,-1.56055l-0.7793,-0.43945c-0.025,-0.014 -1.53284,-0.87916 -3.33984,-2.41016c1.065,-1.18 2.09048,-2.5715 2.89648,-4.1875l0.18359,-0.36719h1.93555v-1.79297h-5.37891v-1.79297h-1.79297v1.79297h-1.99609l-5.91797,-15.43359c-0.51682,-1.34968 -1.82243,-2.24805 -3.26758,-2.24805zM6.45703,15.07422c-0.39782,0.0057 -0.77709,0.1692 -1.05437,0.45453c-0.27728,0.28533 -0.42985,0.66913 -0.42415,1.06695v15.86328c0,1.88616 1.5611,3.44727 3.44727,3.44727h8.87305c0.54095,0.00765 1.04412,-0.27656 1.31683,-0.74381c0.27271,-0.46725 0.27271,-1.04514 0,-1.51238c-0.27271,-0.46725 -0.77588,-0.75146 -1.31683,-0.74381h-8.87305c-0.26384,0 -0.44727,-0.18343 -0.44727,-0.44727v-15.86328c0.00581,-0.40527 -0.15263,-0.79565 -0.43923,-1.08225c-0.2866,-0.2866 -0.67698,-0.44504 -1.08225,-0.43923zM16.51563,16.21289c-2.957,0 -5.35547,2.39652 -5.35547,5.35352c0,2.957 2.39947,5.35352 5.35547,5.35352c2.956,0 5.35352,-2.39847 5.35352,-5.35547c-0.002,-0.399 -0.04981,-0.78711 -0.13281,-1.16211h-4.99023v1.86328h3.18945c-0.324,1.594 -1.73092,2.79297 -3.41992,2.79297c-1.928,0 -3.49219,-1.56319 -3.49219,-3.49219c0,-1.929 1.56319,-3.49219 3.49219,-3.49219c0.905,0 1.7257,0.34711 2.3457,0.91211l1.31836,-1.31641c-0.958,-0.901 -2.24506,-1.45703 -3.66406,-1.45703zM30.55078,24.45313h4.52148c-0.684,1.264 -1.51572,2.38075 -2.38672,3.34375c-0.49658,-0.48504 -0.98715,-1.0272 -1.46484,-1.5957zM24.11328,35.90625h3.49023l-2.86523,3.46289z"></path></g></g></svg>