<svg xmlns="http://www.w3.org/2000/svg"  viewBox="0 0 48 48" width="48px" height="48px"><path fill="none" stroke="#000" stroke-linecap="round" stroke-linejoin="round" stroke-width="3" d="M37.5,38.7c0.4,2.7-2.4,4.7-4.9,3.5L25,38.3c-0.6-0.3-1.4-0.3-2.1,0l-7.6,3.9c-2.4,1.3-5.3-0.8-4.9-3.5l1.3-8.7	c0.1-0.7-0.1-1.4-0.6-1.9l-5.8-5.8c-1.9-1.9-0.9-5.3,1.9-5.7l4.4-0.7"/><path fill="none" stroke="#000" stroke-linecap="round" stroke-linejoin="round" stroke-width="3" d="M17.6,14.1L21,7.2c1.2-2.5,4.8-2.5,6,0l3.4,6.8c0.3,0.6,0.9,1.1,1.7,1.2l8.7,1.3c2.7,0.4,3.8,3.7,1.9,5.7	l-5.8,5.8c-0.5,0.5-0.7,1.2-0.6,1.9l0.4,2.6"/></svg>