<svg xmlns="http://www.w3.org/2000/svg"  viewBox="0 0 16 16" width="16px" height="16px" baseProfile="basic"><rect width="2" height="14" x="7" y="-1" fill="#ffa62e" transform="rotate(-90 8 6)"/><rect width="2" height="12" x="7" y="-4" fill="#ffa62e" transform="rotate(-90 8 2)"/><polygon fill="#f28211" points="14,3 15,5 1,5 2,3"/><path fill="#a2e4f4" d="M1,7v8h14V7H1z"/><rect width="4" height="6" x="9" y="9" fill="#2583ef"/><rect width="4" height="4" x="3" y="9" fill="#2583ef"/><rect width="2" height="4" x="7" fill="#fe3155" transform="rotate(-90 8 2)"/><rect width="2" height="4" x="7" y="4" fill="#fe3155" transform="rotate(-90 8 6)"/><rect width="4" height="2" x="6" y="3" fill="#f0104c"/><rect width="2" height="3" x="12.5" y=".5" fill="#fe3155" transform="rotate(-90 13.5 2)"/><rect width="2" height="3" x="13.5" y="4.5" fill="#fe3155" transform="rotate(-90 14.5 6)"/><polygon fill="#f0104c" points="15,3 16,5 13,5 12,3"/><rect width="2" height="3" x="1.5" y=".5" fill="#fe3155" transform="rotate(-90 2.5 2)"/><rect width="2" height="3" x=".5" y="4.5" fill="#fe3155" transform="rotate(-90 1.5 6)"/><polygon fill="#f0104c" points="1,3 0,5 3,5 4,3"/></svg>