<svg width="82" height="81" viewBox="0 0 82 81" fill="none" xmlns="http://www.w3.org/2000/svg">
<g clip-path="url(#clip0_37_1479)">
<mask id="mask0_37_1479" style="mask-type:luminance" maskUnits="userSpaceOnUse" x="0" y="-2" width="82" height="83">
<path d="M0 -1.50001H82V80.5H0V-1.50001Z" fill="white"/>
</mask>
<g mask="url(#mask0_37_1479)">
<path d="M34.5263 67.5526C34.5263 72.3194 32.8194 76.1842 28.0526 76.1842H12.9473C4.31574 76.1842 4.31574 45.9737 12.9473 45.9737H28.0526C32.8194 45.9737 34.5263 49.8385 34.5263 54.6053V67.5526Z" fill="#553788"/>
<path d="M75.5263 71.8684H73.3684V50.2895H75.5263C76.0986 50.2895 76.6475 50.0621 77.0522 49.6574C77.4569 49.2528 77.6842 48.7039 77.6842 48.1316C77.6842 47.5593 77.4569 47.0104 77.0522 46.6057C76.6475 46.201 76.0986 45.9737 75.5263 45.9737H23.7369C15.1053 45.9737 15.1053 76.1842 23.7369 76.1842H75.5263C76.0986 76.1842 76.6475 75.9569 77.0522 75.5522C77.4569 75.1475 77.6842 74.5986 77.6842 74.0263C77.6842 73.454 77.4569 72.9051 77.0522 72.5004C76.6475 72.0958 76.0986 71.8684 75.5263 71.8684Z" fill="#9266CC"/>
<path d="M75.8975 71.8684H25.8948C21.579 71.8684 21.579 50.2895 25.8948 50.2895H75.8975C78.2799 50.2895 78.2799 71.8684 75.8975 71.8684Z" fill="#CCD6DD"/>
<path d="M26.9737 54.6052H77.3605C77.0692 52.0697 76.5815 50.2894 75.8975 50.2894H25.8947C22.3321 50.2894 21.7127 64.9804 24.0325 70.114C23.1866 63.731 24.1663 54.6052 26.9737 54.6052Z" fill="#99AAB5"/>
<path d="M28.0526 17.921C28.0526 20.2103 27.1432 22.4057 25.5245 24.0245C23.9058 25.6432 21.7103 26.5526 19.4211 26.5526H10.7895C2.1579 26.5526 2.1579 2.81577 10.7895 2.81577H19.4211C21.7103 2.81577 23.9058 3.72517 25.5245 5.3439C27.1432 6.96264 28.0526 9.15811 28.0526 11.4473V17.921Z" fill="#226699"/>
<path d="M69.0526 22.2368H66.8947V7.13156H69.0526C69.6249 7.13156 70.1738 6.90421 70.5784 6.49953C70.9831 6.09484 71.2105 5.54597 71.2105 4.97367C71.2105 4.40136 70.9831 3.85249 70.5784 3.44781C70.1738 3.04312 69.6249 2.81577 69.0526 2.81577H17.2631C8.63153 2.81577 8.63153 26.5526 17.2631 26.5526H69.0526C69.6249 26.5526 70.1738 26.3253 70.5784 25.9206C70.9831 25.5159 71.2105 24.967 71.2105 24.3947C71.2105 23.8224 70.9831 23.2735 70.5784 22.8689C70.1738 22.4642 69.6249 22.2368 69.0526 22.2368Z" fill="#55ACEE"/>
<path d="M69.4238 22.2368H19.421C15.1053 22.2368 15.1053 7.13155 19.421 7.13155H69.4238C71.8061 7.13155 71.8061 22.2368 69.4238 22.2368Z" fill="#CCD6DD"/>
<path d="M19.421 11.4473H71.0487C70.8027 9.01967 70.2632 7.13151 69.4238 7.13151H19.421C16.8467 7.13151 15.8195 12.5025 16.318 16.842C16.6546 13.9116 17.6796 11.4473 19.421 11.4473Z" fill="#99AAB5"/>
<path d="M45.3158 37.3421C45.3158 39.6313 44.4064 41.8268 42.7877 43.4455C41.1689 45.0642 38.9735 45.9736 36.6842 45.9736H15.1053C6.4737 45.9736 6.4737 26.5526 15.1053 26.5526H36.6842C38.9735 26.5526 41.1689 27.462 42.7877 29.0807C44.4064 30.6994 45.3158 32.8949 45.3158 35.1842V37.3421Z" fill="#F4900C"/>
<path d="M77.6842 41.6578H75.5263V30.8684H77.6842C78.2565 30.8684 78.8054 30.641 79.21 30.2363C79.6147 29.8317 79.8421 29.2828 79.8421 28.7105C79.8421 28.1382 79.6147 27.5893 79.21 27.1846C78.8054 26.7799 78.2565 26.5526 77.6842 26.5526H34.5263C25.8947 26.5526 25.8947 45.9736 34.5263 45.9736H77.6842C78.2565 45.9736 78.8054 45.7463 79.21 45.3416C79.6147 44.9369 79.8421 44.388 79.8421 43.8157C79.8421 43.2434 79.6147 42.6946 79.21 42.2899C78.8054 41.8852 78.2565 41.6578 77.6842 41.6578Z" fill="#FFAC33"/>
<path d="M78.0554 41.6578H36.6842C32.3684 41.6578 32.3684 30.8684 36.6842 30.8684H78.0554C80.4377 30.8684 80.4377 41.6578 78.0554 41.6578Z" fill="#CCD6DD"/>
<path d="M36.6843 35.1842H79.8076C79.6695 32.8925 79.0869 30.8684 78.0554 30.8684H36.6843C33.9351 30.8684 32.9446 35.2424 33.6999 38.421C34.1272 36.6105 35.1176 35.1842 36.6843 35.1842Z" fill="#99AAB5"/>
</g>
</g>
<defs>
<clipPath id="clip0_37_1479">
<rect width="82" height="82" fill="white" transform="translate(0 -1.5)"/>
</clipPath>
</defs>
</svg>
