<svg width="82" height="81" viewBox="0 0 82 81" fill="none" xmlns="http://www.w3.org/2000/svg">
<path d="M63.7095 12.5652L60.2928 21.6763C60.1805 21.9647 59.9598 22.1978 59.6778 22.3255C59.3981 22.4431 59.0836 22.4472 58.8009 22.3369L54.6667 20.6855V36.0833C54.6667 36.3853 54.5467 36.675 54.3331 36.8886C54.1196 37.1022 53.8299 37.2221 53.5278 37.2221H28.4723C28.1702 37.2221 27.8805 37.1022 27.667 36.8886C27.4534 36.675 27.3334 36.3853 27.3334 36.0833V20.6855L23.1992 22.3369C22.9165 22.4472 22.602 22.4431 22.3223 22.3255C22.0403 22.1978 21.8196 21.9647 21.7073 21.6763L21.5592 21.2663L21.0923 20.0135L18.2906 12.5652C18.1923 12.2939 18.1998 11.9956 18.3116 11.7296C18.4235 11.4636 18.6315 11.2496 18.8942 11.1302L31.422 5.43575C31.5684 5.36819 31.7277 5.33322 31.8889 5.33325H34.292C34.3212 5.34488 34.3519 5.35254 34.3831 5.35603C34.4677 5.36467 34.5515 5.37991 34.6337 5.40159C34.6906 5.42436 34.7476 5.45853 34.8045 5.48131C34.8735 5.52026 34.9383 5.56605 34.9981 5.61797C35.053 5.66147 35.1027 5.71115 35.1462 5.76603C35.1907 5.82243 35.2289 5.88354 35.2601 5.94825C35.2983 6.01552 35.3253 6.08862 35.3398 6.16464C35.3634 6.20412 35.3825 6.24615 35.3967 6.28992C35.5457 7.18899 35.9133 8.03767 36.4673 8.76131C36.9584 9.42532 37.5916 9.97132 38.3206 10.3595C39.0496 10.7476 39.8561 10.9681 40.6812 11.0049C40.7869 11.0186 40.8934 11.0262 41.0001 11.0277C41.5603 11.0316 42.1176 10.947 42.6514 10.7771C43.6654 10.4764 44.574 9.89582 45.273 9.10213C45.972 8.30844 46.4331 7.33375 46.6034 6.28992C46.6148 6.24436 46.6376 6.2102 46.6489 6.16464C46.6724 6.08978 46.7029 6.01732 46.7401 5.94825C46.7713 5.88354 46.8094 5.82243 46.8539 5.76603C46.8966 5.7141 46.9422 5.66466 46.9906 5.61797C47.0556 5.56196 47.1285 5.5159 47.207 5.48131C47.2503 5.44729 47.3011 5.42389 47.3551 5.41297C47.4397 5.38319 47.5277 5.36406 47.617 5.35603C47.6626 5.35603 47.6967 5.33325 47.7309 5.33325H51.2501C51.4283 5.33432 51.6039 5.37723 51.7626 5.45853L54.4731 6.81381L61.4317 10.2988L62.6162 10.891L63.1514 11.153C63.4042 11.276 63.6017 11.4892 63.705 11.7506C63.8083 12.012 63.8099 12.3027 63.7095 12.5652Z" fill="#EA5932"/>
<path d="M64.9167 39.5H17.0833C16.7813 39.5 16.4916 39.62 16.278 39.8336C16.0644 40.0472 15.9445 40.3368 15.9445 40.6389V70.25C15.9445 70.5323 16.0493 70.8046 16.2387 71.014C16.4281 71.2234 16.6885 71.355 16.9695 71.3832L40.8861 73.661C40.9226 73.661 40.9579 73.661 40.9943 73.661C41.0308 73.661 41.0661 73.661 41.1025 73.661L65.0192 71.3832C65.3021 71.3576 65.5653 71.2272 65.7571 71.0175C65.9488 70.8079 66.0553 70.5341 66.0556 70.25V40.6389C66.0556 40.3368 65.9356 40.0472 65.722 39.8336C65.5084 39.62 65.2187 39.5 64.9167 39.5Z" fill="#01ADF0"/>
<path d="M66.0556 40.6389V70.25C66.0567 70.5351 65.9509 70.8103 65.759 71.0211C65.5671 71.232 65.3031 71.3632 65.0192 71.3889L41.1025 73.6667H41V72.5278C44.8552 72.5292 48.6407 71.5003 51.9647 69.5476C55.2887 67.5948 58.0304 64.7892 59.9061 61.4211C61.7818 58.053 62.7233 54.2448 62.6331 50.3907C62.5428 46.5366 61.4243 42.7767 59.3931 39.5H64.9167C65.2187 39.5 65.5084 39.62 65.722 39.8336C65.9356 40.0472 66.0556 40.3368 66.0556 40.6389Z" fill="#00A4D6"/>
<path d="M41 39.5V73.6667H40.8975L16.9809 71.3889C16.6969 71.3632 16.4329 71.232 16.241 71.0211C16.0491 70.8103 15.9433 70.5351 15.9445 70.25V40.6389C15.9445 40.3368 16.0645 40.0472 16.278 39.8336C16.4916 39.62 16.7813 39.5 17.0834 39.5H41Z" fill="#17A0DD"/>
<path d="M41 65.6944V73.6667H40.8975L16.9809 71.3889C16.6969 71.3632 16.4329 71.232 16.241 71.0211C16.0491 70.8103 15.9433 70.5351 15.9445 70.25V40.6389C15.9445 40.3368 16.0645 40.0472 16.278 39.8336C16.4916 39.62 16.7813 39.5 17.0834 39.5H28.4836C26.9671 42.2964 26.1798 45.43 26.1945 48.6111C26.1945 58.0411 32.8228 65.6944 41 65.6944Z" fill="#0992DB"/>
<path d="M62.6389 61.1389V65.6944C62.6372 65.9806 62.5289 66.2558 62.3352 66.4664C62.1414 66.677 61.8761 66.8078 61.5911 66.8333L54.9856 67.38L47.9245 67.9722H47.8333C47.5474 67.9728 47.2715 67.8673 47.0589 67.6761C46.9446 67.5674 46.8533 67.4367 46.7907 67.2919C46.7281 67.1471 46.6953 66.9911 46.6945 66.8333V61.1389C46.6945 60.8368 46.8144 60.5472 47.028 60.3336C47.2416 60.12 47.5313 60 47.8333 60H61.5C61.8021 60 62.0917 60.12 62.3053 60.3336C62.5189 60.5472 62.6389 60.8368 62.6389 61.1389Z" fill="white"/>
<path d="M62.6389 61.1389V65.6944C62.6372 65.9806 62.5289 66.2558 62.3352 66.4664C62.1415 66.677 61.8762 66.8078 61.5912 66.8333L54.9856 67.38C57.3825 65.3625 59.3071 62.8432 60.6231 60H61.5C61.8021 60 62.0918 60.12 62.3054 60.3336C62.5189 60.5472 62.6389 60.8368 62.6389 61.1389Z" fill="#E2E2E2"/>
<path d="M72.8092 50.1827C72.7314 50.3617 72.6107 50.5188 72.4578 50.6399C72.3048 50.7611 72.1243 50.8427 71.9323 50.8775L50.2934 54.2941C50.2331 54.3033 50.1721 54.3071 50.1112 54.3055C49.9203 54.3068 49.7323 54.2593 49.5649 54.1677C49.3975 54.076 49.2562 53.9431 49.1545 53.7816L48.0042 51.9708L47.8903 51.8L41.1823 41.2539C41.072 41.0819 41.0099 40.8835 41.0027 40.6793C40.9954 40.4752 41.0432 40.2728 41.141 40.0935C41.2388 39.9142 41.3831 39.7644 41.5587 39.66C41.7342 39.5556 41.9347 39.5003 42.1389 39.5H64.9167C64.9475 39.4988 64.9783 39.5026 65.0078 39.5114C65.0306 39.5114 65.0648 39.5227 65.0876 39.5227C65.1339 39.5247 65.1798 39.5324 65.2242 39.5455C65.4658 39.6104 65.6785 39.7548 65.8278 39.9555L72.6612 49.0666C72.6953 49.1236 72.7409 49.1805 72.7751 49.2375C72.8454 49.3842 72.8847 49.5439 72.8906 49.7065C72.8965 49.8692 72.8688 50.0313 72.8092 50.1827Z" fill="#4C233D"/>
<path d="M72.7751 49.2375L47.8903 51.8L41.1823 41.2539C41.072 41.082 41.0099 40.8835 41.0027 40.6794C40.9954 40.4752 41.0432 40.2729 41.141 40.0935C41.2388 39.9142 41.3831 39.7645 41.5587 39.66C41.7342 39.5556 41.9347 39.5003 42.1389 39.5H64.8028C64.8712 39.5 64.9395 39.5114 65.0078 39.5114C65.0306 39.5114 65.0648 39.5228 65.0876 39.5228C65.1339 39.5248 65.1798 39.5324 65.2242 39.5456C65.4658 39.6104 65.6785 39.7549 65.8278 39.9556L72.6612 49.0667C72.6953 49.1236 72.7409 49.1806 72.7751 49.2375Z" fill="#61304D"/>
<path d="M62.8098 39.7961C61.0103 45.4792 55.1678 49.9664 47.6853 51.4811L41.1823 41.2539C41.072 41.082 41.0099 40.8836 41.0027 40.6794C40.9954 40.4752 41.0432 40.2729 41.141 40.0936C41.2388 39.9142 41.3831 39.7645 41.5587 39.6601C41.7342 39.5557 41.9347 39.5004 42.1389 39.5H62.0695C62.3456 39.4977 62.6115 39.6041 62.8098 39.7961Z" fill="#6B3B5C"/>
<path d="M40.9887 40.5592C41.0109 40.7946 40.9548 41.0308 40.8292 41.2312L32.7887 54.2942L31.7181 56.0367C31.6169 56.203 31.4748 56.3405 31.3053 56.4362C31.1358 56.5319 30.9447 56.5826 30.7501 56.5834C30.6891 56.5853 30.6281 56.5815 30.5678 56.572L10.0678 53.1553C9.88389 53.1234 9.7103 53.0478 9.56167 52.9348C9.41303 52.8218 9.29368 52.6748 9.21366 52.5062C9.13545 52.3385 9.09973 52.1542 9.10966 51.9695C9.11959 51.7847 9.17487 51.6053 9.27061 51.447L16.1039 40.0581C16.1239 40.0257 16.1468 39.9952 16.1723 39.967C16.2751 39.8213 16.4117 39.7027 16.5703 39.6213C16.729 39.54 16.9051 39.4984 17.0834 39.5H39.8612C40.063 39.5004 40.2611 39.5544 40.4352 39.6564C40.6093 39.7585 40.7531 39.905 40.852 40.0809C40.9418 40.2242 40.9892 40.3901 40.9887 40.5592Z" fill="#4C233D"/>
<path d="M40.9886 40.5591C41.0108 40.7945 40.9548 41.0307 40.8292 41.231L34.7817 51.0483L32.7886 54.2941H32.7431L13.0858 51.333C12.9217 51.3081 12.7659 51.2445 12.6312 51.1475C12.4965 51.0505 12.3869 50.9227 12.3114 50.7749C12.2444 50.6283 12.2146 50.4674 12.2245 50.3066C12.2345 50.1457 12.2838 49.9897 12.3683 49.8524L16.3317 39.9669C16.4406 39.8193 16.5832 39.6999 16.7477 39.6187C16.9121 39.5375 17.0936 39.4968 17.277 39.4999H39.8611C40.0629 39.5003 40.261 39.5542 40.4351 39.6563C40.6092 39.7584 40.7531 39.9048 40.852 40.0808C40.9417 40.2241 40.9891 40.3899 40.9886 40.5591Z" fill="#61304D"/>
<path d="M40.9886 40.5592C41.0108 40.7946 40.9548 41.0308 40.8292 41.2311L34.7817 51.0483C28.0508 49.1806 22.9258 44.8414 21.377 39.5H39.8611C40.0629 39.5003 40.261 39.5543 40.4351 39.6564C40.6092 39.7584 40.7531 39.9049 40.852 40.0808C40.9417 40.2242 40.9891 40.39 40.9886 40.5592Z" fill="#6B3B5C"/>
<path d="M43.2777 39.5H38.7222V40.6389H43.2777V39.5Z" fill="#6B3B5C"/>
<path d="M54.6667 9.88881C54.6667 16.534 52.027 22.9069 47.3281 27.6058C42.6293 32.3046 36.2563 34.9444 29.6112 34.9444C28.8367 34.9444 28.0851 34.9102 27.3334 34.8419V20.6855L23.1992 22.3369C22.9165 22.4472 22.602 22.4431 22.3223 22.3255C22.0403 22.1978 21.8196 21.9647 21.7073 21.6763L21.5592 21.2663L21.0923 20.0135L18.2906 12.5652C18.1923 12.2939 18.1998 11.9956 18.3116 11.7296C18.4235 11.4636 18.6315 11.2496 18.8942 11.1302L31.422 5.43575C31.5684 5.36819 31.7277 5.33322 31.8889 5.33325H34.292C34.3212 5.34488 34.3519 5.35254 34.3831 5.35603C34.4677 5.36467 34.5515 5.37991 34.6337 5.40159C34.6906 5.42436 34.7476 5.45853 34.8045 5.48131C34.8735 5.52026 34.9383 5.56605 34.9981 5.61797C35.053 5.66147 35.1027 5.71115 35.1462 5.76603C35.1907 5.82243 35.2289 5.88354 35.2601 5.94825C35.2983 6.01552 35.3253 6.08862 35.3398 6.16464C35.3634 6.20412 35.3825 6.24615 35.3967 6.28992C35.5457 7.18899 35.9133 8.03767 36.4673 8.76131C36.9584 9.42532 37.5916 9.97132 38.3206 10.3595C39.0496 10.7476 39.8561 10.9681 40.6812 11.0049C40.7869 11.0186 40.8934 11.0262 41.0001 11.0277C41.5603 11.0316 42.1176 10.947 42.6514 10.7771C43.6654 10.4764 44.574 9.89582 45.273 9.10213C45.972 8.30844 46.4331 7.33375 46.6034 6.28992C46.6148 6.24436 46.6376 6.2102 46.6489 6.16464C46.6724 6.08978 46.7029 6.01732 46.7401 5.94825C46.7713 5.88354 46.8094 5.82243 46.8539 5.76603C46.8966 5.7141 46.9422 5.66466 46.9906 5.61797C47.0556 5.56196 47.1285 5.5159 47.207 5.48131C47.2503 5.44729 47.3011 5.42389 47.3551 5.41297C47.4397 5.38319 47.5277 5.36406 47.617 5.35603C47.6626 5.35603 47.6967 5.33325 47.7309 5.33325H51.2501C51.4283 5.33432 51.6039 5.37723 51.7626 5.45853L54.4731 6.81381C54.6014 7.8338 54.6661 8.86078 54.6667 9.88881Z" fill="#FC6F43"/>
<path d="M42.6514 10.7771C41.1717 13.9507 39.0445 16.7797 36.4064 19.0824C33.7684 21.385 30.6779 23.1104 27.3334 24.1477V20.6855L23.1992 22.3369C22.9165 22.4472 22.602 22.4431 22.3223 22.3255C22.0403 22.1978 21.8196 21.9647 21.7073 21.6763L21.5592 21.2663L21.0923 20.0135L18.2906 12.5652C18.1923 12.2939 18.1998 11.9956 18.3116 11.7296C18.4235 11.4636 18.6315 11.2496 18.8942 11.1302L31.422 5.43575C31.5684 5.36819 31.7277 5.33322 31.8889 5.33325H34.292C34.3212 5.34488 34.3519 5.35254 34.3831 5.35603C34.4677 5.36467 34.5515 5.37991 34.6337 5.40159C34.6906 5.42436 34.7476 5.45853 34.8045 5.48131C34.8735 5.52026 34.9383 5.56605 34.9981 5.61797C35.053 5.66147 35.1027 5.71115 35.1462 5.76603C35.1907 5.82243 35.2289 5.88354 35.2601 5.94825C35.2983 6.01552 35.3253 6.08862 35.3398 6.16464C35.3634 6.20412 35.3825 6.24615 35.3967 6.28992C35.5457 7.18899 35.9133 8.03767 36.4673 8.76131C36.9584 9.42532 37.5916 9.97132 38.3206 10.3595C39.0496 10.7476 39.8561 10.9681 40.6812 11.0049C40.7869 11.0186 40.8934 11.0262 41.0001 11.0277C41.5603 11.0316 42.1176 10.947 42.6514 10.7771Z" fill="#FC7859"/>
</svg>
