<svg width="82" height="81" viewBox="0 0 82 81" fill="none" xmlns="http://www.w3.org/2000/svg">
<g clip-path="url(#clip0_37_1321)">
<path d="M42.2052 26.2371H68.0424C70.6759 26.2371 73.2016 27.2832 75.0638 29.1454C76.9259 31.0076 77.9721 33.5332 77.9721 36.1667V42.1662H32.2755V36.1667C32.2755 33.5332 33.3217 31.0076 35.1839 29.1454C37.046 27.2832 39.5717 26.2371 42.2052 26.2371Z" fill="#FFCD85"/>
<path d="M68.0424 26.2371H60.8353C63.4688 26.2371 65.9945 27.2832 67.8567 29.1454C69.7189 31.0076 70.765 33.5332 70.765 36.1667V42.1662H77.972V36.1667C77.972 33.5332 76.9259 31.0076 75.0637 29.1454C73.2015 27.2832 70.6759 26.2371 68.0424 26.2371Z" fill="#FFC570"/>
<path d="M77.972 53.0078V59.0073C77.972 61.6408 76.9258 64.1664 75.0636 66.0285C73.2015 67.8907 70.6758 68.9369 68.0424 68.937H42.2043C39.5709 68.9369 37.0452 67.8907 35.1831 66.0285C33.3209 64.1664 32.2747 61.6408 32.2747 59.0073V53.0078H77.972Z" fill="#FFCD85"/>
<path d="M70.765 53.0081V59.0075C70.765 61.641 69.7189 64.1667 67.8567 66.0289C65.9945 67.891 63.4688 68.9372 60.8353 68.9372H68.0424C70.6759 68.9372 73.2015 67.891 75.0637 66.0289C76.9259 64.1667 77.972 61.641 77.972 59.0075V53.0081H70.765Z" fill="#FFC570"/>
<path d="M77.972 53.0078V57.4409C77.3936 57.6866 76.7715 57.813 76.1431 57.8125H32.7567C32.5957 57.8126 32.4348 57.8046 32.2747 57.7885V53.0078H77.972Z" fill="#FFC570"/>
<path d="M80.7989 50.1313V50.7543C80.799 51.3658 80.6787 51.9713 80.4448 52.5362C80.2109 53.1011 79.8679 53.6144 79.4356 54.0468C79.0032 54.4791 78.4899 54.8221 77.925 55.056C77.3601 55.2899 76.7546 55.4102 76.1431 55.4101H32.7568C32.1454 55.4102 31.5399 55.2899 30.975 55.056C30.41 54.8221 29.8967 54.4791 29.4644 54.0468C29.032 53.6144 28.6891 53.1011 28.4552 52.5362C28.2213 51.9713 28.1009 51.3658 28.1011 50.7543V50.1313C28.1007 49.5198 28.2208 48.9142 28.4546 48.3492C28.6884 47.7841 29.0314 47.2707 29.4638 46.8383C29.8962 46.4059 30.4096 46.0629 30.9746 45.8291C31.5397 45.5953 32.1453 45.4752 32.7568 45.4756H76.1431C77.3778 45.4758 78.5619 45.9664 79.435 46.8395C80.308 47.7126 80.7986 48.8966 80.7989 50.1313Z" fill="#FF7A7A"/>
<path d="M80.7988 50.1313V50.7543C80.799 51.3658 80.6786 51.9713 80.4447 52.5362C80.2108 53.1011 79.8679 53.6144 79.4355 54.0468C79.0031 54.4791 78.4898 54.8221 77.9249 55.056C77.36 55.2899 76.7545 55.4102 76.1431 55.4101H68.936C69.5475 55.4102 70.153 55.2899 70.7179 55.056C71.2828 54.8221 71.7961 54.4791 72.2285 54.0468C72.6608 53.6144 73.0038 53.1011 73.2377 52.5362C73.4716 51.9713 73.5919 51.3658 73.5918 50.7543V50.1313C73.5915 49.9035 73.5749 49.6761 73.5421 49.4507C73.3791 48.3457 72.8241 47.3361 71.9785 46.6064C71.1328 45.8766 70.053 45.4753 68.936 45.4756H76.1431C77.3778 45.4758 78.5618 45.9664 79.4349 46.8395C80.308 47.7126 80.7986 48.8966 80.7988 50.1313Z" fill="#FF6666"/>
<path d="M51.4135 55.4104L45.0169 64.4485C44.973 64.5144 44.9136 64.5684 44.8438 64.6057C44.7741 64.6431 44.6961 64.6627 44.617 64.6627C44.5379 64.6627 44.4599 64.6431 44.3902 64.6057C44.3204 64.5684 44.261 64.5144 44.2171 64.4485L38.3691 55.4104H51.4135Z" fill="#FFC570"/>
<path d="M49.4379 55.4104L45.0169 62.0462C44.973 62.112 44.9136 62.166 44.8438 62.2034C44.7741 62.2408 44.6961 62.2603 44.617 62.2603C44.5379 62.2603 44.46 62.2408 44.3902 62.2034C44.3204 62.166 44.261 62.112 44.2171 62.0462L39.7961 55.4104H49.4379Z" fill="#FFF8CC"/>
<path d="M80.1934 47.8363C79.967 48.3983 79.62 48.9038 79.1768 49.317C78.7336 49.7302 78.2051 50.041 77.6286 50.2276C77.0521 50.4141 76.4416 50.4717 75.8404 50.3964C75.2392 50.3211 74.6618 50.1147 74.1491 49.7918C73.9553 49.6717 73.7551 49.5564 73.5421 49.4507C72.5464 48.9625 71.4476 48.7218 70.339 48.7492C65.2668 48.7492 65.2668 52.6426 60.1947 52.6426C55.1242 52.6426 55.1242 48.7492 50.0536 48.7492C44.9831 48.7492 44.9831 52.6426 39.9125 52.6426C35.7917 52.6426 35.0197 50.0721 32.1545 49.1079C31.573 48.9168 31.0521 48.5757 30.6444 48.1191C30.2367 47.6625 29.9565 47.1064 29.8323 46.507C30.6598 45.8378 31.6924 45.4736 32.7567 45.4756H76.1431C76.9668 45.4751 77.7758 45.6934 78.4875 46.1082C79.1991 46.523 79.7879 47.1193 80.1934 47.8363Z" fill="#FF6666"/>
<path d="M29.7664 43.4456C29.7724 44.1708 30.0062 44.8757 30.4348 45.4608C30.8634 46.0458 31.465 46.4813 32.1547 46.7056C35.0194 47.6697 35.7918 50.2407 39.9119 50.2407C44.9829 50.2407 44.9829 46.3462 50.0539 46.3462C55.1246 46.3462 55.1246 50.2407 60.1955 50.2407C65.267 50.2407 65.267 46.3462 70.3385 46.3462C72.061 46.3462 73.1984 46.7956 74.1483 47.3888C76.9084 49.113 80.4815 47.1591 80.4815 43.8987C80.4823 43.3564 80.3762 42.8193 80.1693 42.318C79.9625 41.8167 79.6589 41.3611 79.276 40.9772C78.893 40.5932 78.4382 40.2884 77.9375 40.0803C77.4368 39.8721 76.8999 39.7646 76.3577 39.7639H33.18C32.7307 39.7645 32.2859 39.8537 31.8711 40.0263C31.4563 40.199 31.0796 40.4517 30.7625 40.77C30.4454 41.0884 30.1942 41.4661 30.0233 41.8816C29.8523 42.2971 29.7649 42.7423 29.7661 43.1916L29.7664 43.4456Z" fill="#63EA86"/>
<path d="M76.3577 39.7639H69.1506C69.6929 39.7646 70.2297 39.8721 70.7305 40.0803C71.2312 40.2884 71.686 40.5932 72.069 40.9772C72.4519 41.3611 72.7555 41.8167 72.9623 42.318C73.1692 42.8193 73.2752 43.3564 73.2745 43.8987C73.282 44.881 72.9336 45.8328 72.2937 46.5781C72.9503 46.7504 73.576 47.0239 74.1483 47.3888C76.9084 49.113 80.4815 47.1591 80.4815 43.8987C80.4823 43.3564 80.3762 42.8193 80.1693 42.318C79.9625 41.8167 79.6589 41.3611 79.276 40.9772C78.893 40.5932 78.4382 40.2884 77.9375 40.0803C77.4368 39.8721 76.8999 39.7646 76.3577 39.7639Z" fill="#3CE568"/>
<path d="M12.5335 36.427L6.89425 37.7655L1.20117 13.6523L7.08707 14.8654L12.5335 36.427Z" fill="#FFE966"/>
<path d="M17.7629 35.4543L9.80798 38.335L11.9904 13.6523L17.7629 16.7289V35.4543Z" fill="#FFED80"/>
<path d="M26.757 36.3762L32.4741 37.326L36.5142 12.8799L30.7243 14.4925L26.757 36.3762Z" fill="#FFE966"/>
<path d="M21.0323 35.3984L28.9873 38.335L26.8049 13.6523L21.0323 16.7289V35.3984Z" fill="#FFED80"/>
<path d="M16.5004 40.1431L22.2925 39.9561L21.4968 10.0627L16.1322 12.7771L16.5004 40.1431Z" fill="#FFE966"/>
<path d="M28.7758 68.9372H9.64909C8.82599 68.9364 8.03095 68.638 7.41053 68.0971C6.79012 67.5562 6.38617 66.8092 6.27316 65.9939L1.97953 35.2855C1.92829 34.9229 1.95544 34.5535 2.05913 34.2022C2.16283 33.8509 2.34067 33.526 2.58064 33.2493C2.82061 32.9726 3.11714 32.7506 3.45022 32.5982C3.7833 32.4459 4.14518 32.3668 4.51144 32.3662H11.5423C12.5482 33.3759 13.7435 34.177 15.0597 34.7236C16.3759 35.2703 17.7871 35.5516 19.2123 35.5516C20.6376 35.5516 22.0487 35.2703 23.3649 34.7236C24.6812 34.177 25.8765 33.3759 26.8824 32.3662H33.9132C34.2795 32.3668 34.6414 32.4459 34.9745 32.5982C35.3076 32.7505 35.6042 32.9725 35.8442 33.2492C36.0841 33.5259 36.262 33.8509 36.3657 34.2021C36.4694 34.5534 36.4966 34.9229 36.4453 35.2855L32.1515 65.9939C32.0385 66.8092 31.6346 67.5561 31.0142 68.097C30.3938 68.6379 29.5988 68.9364 28.7758 68.9372Z" fill="#FF6666"/>
<path d="M33.9133 32.3662H27.9461C28.3124 32.3668 28.6743 32.4459 29.0074 32.5982C29.3405 32.7505 29.637 32.9725 29.877 33.2492C30.117 33.5259 30.2948 33.8509 30.3985 34.2021C30.5022 34.5534 30.5294 34.9229 30.4782 35.2855L26.1844 65.9939C26.0714 66.8092 25.6674 67.5561 25.0471 68.097C24.4267 68.6379 23.6317 68.9364 22.8086 68.9372H28.7757C29.5988 68.9364 30.3938 68.638 31.0143 68.0971C31.6347 67.5562 32.0386 66.8092 32.1516 65.9939L36.4453 35.2855C36.4965 34.9229 36.4693 34.5534 36.3656 34.2021C36.2619 33.8509 36.0841 33.5259 35.8441 33.2492C35.6041 32.9725 35.3076 32.7505 34.9745 32.5982C34.6414 32.4459 34.2796 32.3668 33.9133 32.3662Z" fill="#FF4E4E"/>
<path d="M19.2124 58.2164C23.3792 58.2164 26.757 54.8297 26.757 50.6519C26.757 46.4741 23.3792 43.0874 19.2124 43.0874C15.0456 43.0874 11.6677 46.4741 11.6677 50.6519C11.6677 54.8297 15.0456 58.2164 19.2124 58.2164Z" fill="white"/>
<path d="M19.2124 43.0876C18.3955 43.0874 17.5841 43.2205 16.8101 43.4815C18.3091 43.9893 19.6113 44.9541 20.5336 46.2402C21.4559 47.5264 21.9519 49.0693 21.9519 50.652C21.9519 52.2347 21.4559 53.7776 20.5336 55.0637C19.6113 56.3499 18.3091 57.3147 16.8101 57.8224C17.8485 58.1678 18.9496 58.2835 20.0372 58.1617C21.1248 58.0399 22.173 57.6835 23.1094 57.117C24.0458 56.5505 24.848 55.7875 25.4607 54.8807C26.0733 53.9738 26.4818 52.9448 26.6579 51.8646C26.834 50.7845 26.7736 49.679 26.4807 48.6245C26.1878 47.5701 25.6694 46.5917 24.9615 45.7572C24.2535 44.9226 23.3728 44.2516 22.3802 43.7907C21.3876 43.3298 20.3068 43.0898 19.2124 43.0874V43.0876Z" fill="#EEEEEE"/>
<path d="M19.2125 41.8861C17.4779 41.8821 15.7812 42.3929 14.3371 43.3537C12.893 44.3144 11.7664 45.6821 11.0999 47.2834C10.4334 48.8848 10.257 50.6479 10.5929 52.3496C10.9289 54.0512 11.7622 55.615 12.9873 56.8429C14.2123 58.0708 15.7742 58.9076 17.4751 59.2475C19.176 59.5873 20.9395 59.4149 22.5424 58.7521C24.1452 58.0892 25.5154 56.9658 26.4795 55.5239C27.4436 54.0819 27.9582 52.3864 27.9583 50.6519C27.9583 48.3305 27.0375 46.1039 25.3979 44.4605C23.7584 42.8172 21.5338 41.8913 19.2125 41.8861ZM19.2125 57.0151C17.9531 57.019 16.7208 56.6491 15.6718 55.9523C14.6227 55.2555 13.804 54.263 13.3194 53.1006C12.8347 51.9382 12.7058 50.6581 12.9491 49.4225C13.1924 48.1868 13.7969 47.0511 14.6861 46.1592C15.5752 45.2673 16.709 44.6593 17.944 44.4121C19.1789 44.165 20.4593 44.2899 21.6232 44.7709C22.7871 45.252 23.7821 46.0676 24.4822 47.1145C25.1823 48.1614 25.556 49.3925 25.5559 50.6519C25.5566 52.3363 24.8891 53.9522 23.6999 55.1451C22.5107 56.338 20.8969 57.0105 19.2125 57.0151ZM80.895 46.7064C81.5218 45.6818 81.7865 44.4765 81.6468 43.2835C81.5071 42.0905 80.9712 40.9789 80.1247 40.1267C79.8373 39.839 79.5182 39.5849 79.1735 39.3692V36.1674C79.1702 33.2163 77.9964 30.3871 75.9097 28.3004C73.823 26.2136 70.9937 25.0398 68.0427 25.0365H42.2045C39.7129 25.0326 37.2923 25.8663 35.3315 27.4036L37.6993 13.0757C37.7322 12.8765 37.7144 12.6723 37.6474 12.4818C37.5805 12.2914 37.4667 12.1209 37.3165 11.9861C37.1662 11.8512 36.9844 11.7564 36.7879 11.7104C36.5913 11.6644 36.3864 11.6687 36.1919 11.7229L30.4023 13.3353C30.1849 13.3958 29.9889 13.5164 29.8368 13.6831C29.6848 13.8499 29.5828 14.0561 29.5425 14.2782L28.5502 19.752L28.0015 13.5467C27.9841 13.3491 27.9179 13.1588 27.809 12.993C27.7 12.8271 27.5517 12.6908 27.3772 12.5963C27.2028 12.5018 27.0076 12.4519 26.8092 12.4512C26.6107 12.4506 26.4152 12.499 26.2401 12.5924L22.8145 14.4181L22.6978 10.0307C22.6924 9.82818 22.6359 9.63035 22.5336 9.45557C22.4312 9.28078 22.2864 9.13471 22.1124 9.03094C21.9385 8.92718 21.7411 8.86908 21.5387 8.86205C21.3363 8.85503 21.1354 8.8993 20.9546 8.99076L15.59 11.7049C15.3894 11.8064 15.2213 11.9622 15.1049 12.1546C14.9884 12.3469 14.9283 12.5681 14.9313 12.7929L14.9457 13.8661L12.5554 12.5922C12.3782 12.4978 12.1802 12.4493 11.9795 12.4511C11.7787 12.453 11.5817 12.5051 11.4063 12.6028C11.2309 12.7004 11.0827 12.8405 10.9754 13.0101C10.8681 13.1798 10.805 13.3736 10.7919 13.574L10.2211 22.3068L8.25121 14.5688C8.19564 14.3505 8.07976 14.1521 7.91679 13.9965C7.75383 13.8409 7.55037 13.7342 7.32967 13.6888L1.44377 12.4761C1.24607 12.4353 1.04128 12.445 0.848328 12.5043C0.655375 12.5636 0.480477 12.6706 0.339791 12.8153C0.199105 12.9601 0.0971691 13.138 0.043399 13.3325C-0.0103711 13.5271 -0.0142406 13.7321 0.0321479 13.9285L4.10684 31.187C3.60593 31.2418 3.12112 31.3967 2.6812 31.6424C2.24127 31.8882 1.85517 32.2198 1.54581 32.6175C1.23645 33.0153 1.01013 33.4711 0.880274 33.958C0.750415 34.4449 0.719665 34.9529 0.789847 35.4519L5.08364 66.1603C5.24078 67.2608 5.78836 68.2681 6.62644 68.9984C7.46453 69.7288 8.53725 70.1334 9.64889 70.1386H28.7757C29.8874 70.1335 30.9601 69.7288 31.7983 68.9985C32.6364 68.2681 33.184 67.2608 33.3411 66.1603L33.3885 65.8211C34.4276 67.1696 35.7634 68.2605 37.2924 69.0091C38.8213 69.7578 40.5021 70.144 42.2045 70.1379H68.0425C70.9936 70.1346 73.8228 68.9608 75.9095 66.8741C77.9962 64.7874 79.17 61.9581 79.1734 59.0071V55.7646C80.0356 55.243 80.7488 54.5079 81.244 53.6302C81.7392 52.7525 81.9996 51.762 82.0001 50.7542V50.1312C82.0038 48.9014 81.6168 47.7021 80.8949 46.7064H80.895ZM79.2807 43.8981C79.2856 44.42 79.1487 44.9335 78.8847 45.3838C78.6207 45.8341 78.2395 46.2042 77.7816 46.4548C77.3214 46.7133 76.7996 46.842 76.272 46.8271C75.7444 46.8123 75.2307 46.6545 74.7857 46.3706C73.4476 45.5351 72.0347 45.1457 70.3393 45.1457C67.3953 45.1457 65.8762 46.3118 64.5357 47.3407C63.3485 48.2519 62.3233 49.039 60.195 49.039C58.0676 49.039 57.0426 48.2519 55.8559 47.3408C54.516 46.3118 52.9971 45.1457 50.0539 45.1457C47.1107 45.1457 45.592 46.3118 44.2519 47.3408C43.0652 48.2521 42.0402 49.039 39.9128 49.039C38.0036 49.039 36.982 48.4044 35.9345 47.6155L36.8642 40.9658H76.3578C76.7423 40.9664 77.1229 41.0427 77.4779 41.1903C77.8328 41.338 78.1552 41.5542 78.4267 41.8265C78.6981 42.0988 78.9132 42.4219 79.0597 42.7773C79.2063 43.1328 79.2813 43.5136 79.2807 43.8981ZM42.2045 27.4388H68.0425C70.3566 27.4415 72.5752 28.3619 74.2116 29.9983C75.8479 31.6346 76.7684 33.8532 76.771 36.1674V38.5807C76.6336 38.5697 76.4957 38.5638 76.3578 38.5633H37.1999L37.6349 35.4519C37.7613 34.554 37.5592 33.6405 37.0656 32.8798C36.5721 32.119 35.8203 31.5621 34.9488 31.3116C35.7451 30.1178 36.8242 29.1395 38.0902 28.4639C39.3561 27.7882 40.7695 27.4361 42.2045 27.439V27.4388ZM29.3513 28.8006L31.7722 15.4475L35.0221 14.5424L32.2828 31.1186L32.2594 31.165H29.5595L29.3507 28.8039L29.3513 28.8006ZM25.7686 15.5661L27.1477 31.1652H26.8827C26.7247 31.1652 26.5682 31.1964 26.4223 31.2569C26.2763 31.3175 26.1438 31.4063 26.0322 31.5182C25.2459 32.3088 24.3285 32.9571 23.3208 33.4345L22.8861 17.1022L25.7686 15.5661ZM20.3468 11.9906L20.9378 34.1944C19.8424 34.3943 18.7205 34.4023 17.6223 34.2178L17.3756 15.8765V15.87L17.3436 13.5104L20.3468 11.9906ZM12.1247 30.0134L12.1255 30.0028L13.0677 15.5876L14.9826 16.6083L15.2095 33.4812C14.1608 33.0005 13.2069 32.3355 12.393 31.5179C12.2916 31.4167 12.1728 31.3345 12.0424 31.2752L12.1247 30.0134ZM2.80285 15.2091L6.10848 15.8903L9.71472 30.0555L9.64216 31.1652H6.57021L2.80285 15.2091ZM33.4569 47.9845L32.4787 54.9817C32.4759 54.9985 32.4735 55.0153 32.4715 55.0322L31.525 61.8013C31.524 61.8109 31.5221 61.8202 31.5211 61.8297L30.9622 65.8278C30.8873 66.3553 30.6253 66.8383 30.224 67.1887C29.8226 67.5391 29.3086 67.7335 28.7759 67.7364H9.64905C9.11633 67.7334 8.60244 67.539 8.20111 67.1887C7.79979 66.8384 7.53779 66.3554 7.46292 65.828L3.16913 35.1196C3.14072 34.926 3.1548 34.7285 3.21039 34.5409C3.26598 34.3533 3.36175 34.18 3.49104 34.0331C3.61716 33.8861 3.77377 33.7683 3.95001 33.6879C4.12624 33.6075 4.31786 33.5664 4.51156 33.5675H5.61503L5.61856 33.5679L5.62336 33.5675L11.0587 33.5677C13.2801 35.6159 16.191 36.753 19.2125 36.753C22.234 36.753 25.1448 35.6158 27.3662 33.5675H33.9134C34.1071 33.5664 34.2987 33.6075 34.4749 33.6879C34.6511 33.7683 34.8078 33.8861 34.9339 34.0331C35.0632 34.18 35.1589 34.3532 35.2145 34.5408C35.2701 34.7284 35.2842 34.9259 35.2558 35.1195L33.4625 47.9446C33.4603 47.9579 33.4587 47.971 33.4569 47.9845ZM76.771 59.0074C76.7684 61.3215 75.8479 63.5401 74.2116 65.1765C72.5752 66.8128 70.3566 67.7333 68.0425 67.7359H42.2045C40.3831 67.7431 38.6057 67.1773 37.1235 66.1187C35.6414 65.0601 34.5297 63.5622 33.9457 61.837L34.6765 56.6115H39.1529L43.6174 63.3124C43.7271 63.4771 43.8757 63.6121 44.0501 63.7054C44.2245 63.7988 44.4193 63.8477 44.6171 63.8477C44.8149 63.8477 45.0097 63.7988 45.1841 63.7054C45.3585 63.6121 45.5071 63.4771 45.6168 63.3124L50.0811 56.6115H76.771V59.0074ZM42.0395 56.6115H47.1946L44.6171 60.4802L42.0395 56.6115ZM79.5978 50.7542C79.5967 51.6701 79.2324 52.5482 78.5848 53.1958C77.9372 53.8434 77.0591 54.2077 76.1432 54.2088H35.1592C35.1102 54.2088 35.0618 54.205 35.0132 54.2029L35.5625 50.2742C36.6269 50.9235 37.9536 51.4411 39.9127 51.4411C42.8559 51.4411 44.3746 50.2752 45.7148 49.246C46.9016 48.3349 47.9264 47.5479 50.0537 47.5479C52.1811 47.5479 53.2059 48.3349 54.3927 49.2462C55.7327 50.275 57.2515 51.4413 60.1948 51.4413C63.1387 51.4413 64.6581 50.275 65.9984 49.2462C67.1855 48.3349 68.2108 47.5479 70.3391 47.5479C71.9223 47.5479 72.8318 47.9827 73.513 48.4081C74.3204 48.9222 75.2523 49.2075 76.2092 49.2334C77.1661 49.2594 78.1121 49.0251 78.9463 48.5556C79.0166 48.5167 79.0837 48.4744 79.1516 48.4329C79.4451 48.9507 79.5989 49.536 79.5978 50.1312V50.7542Z" fill="#272A33"/>
</g>
<defs>
<clipPath id="clip0_37_1321">
<rect width="82" height="82" fill="white" transform="translate(0 -1.5)"/>
</clipPath>
</defs>
</svg>
