<svg width="82" height="81" viewBox="0 0 82 81" fill="none" xmlns="http://www.w3.org/2000/svg">
<path d="M55.5408 63.4599C65.3314 60.8701 71.1689 50.8338 68.5792 41.0432C65.9895 31.2525 55.9532 25.415 46.1625 28.0047C36.3718 30.5945 30.5343 40.6308 33.1241 50.4214C35.7138 60.2121 45.7501 66.0496 55.5408 63.4599Z" fill="#FF6D00"/>
<path d="M43.2265 52.0257C53.0172 49.4359 58.8547 39.3996 56.265 29.609C53.6753 19.8183 43.639 13.9808 33.8483 16.5705C24.0576 19.1603 18.2201 29.1965 20.8099 38.9872C23.3996 48.7779 33.4359 54.6154 43.2265 52.0257Z" fill="#AB0738"/>
<path d="M41.0128 66.7599L42.9757 66.5792L44.6362 69.4825L42.895 70.9034L41.2934 69.0213L40.8732 66.7996L41.0128 66.7599Z" fill="#F2F3F4"/>
<path d="M36.4887 41.4014L41.3998 42.5763L48.5005 44.0971L53.4115 48.8749L58.6967 55.335L60.3917 58.9519L60.566 60.1396L58.0035 63.4491L52.8785 65.6913L44.4761 70.1834L42.3351 66.4396L44.8976 65.0379L52.5851 59.3927L50.7965 58.0038L44.7105 54.9608L42.2544 55.5489L39.2114 57.0967L38.4644 59.1249L36.2889 56.1486L32.1645 55.9756L30.9896 55.7616L33.8199 49.5155L35.688 42.8428L36.4887 41.4014Z" fill="#32313C"/>
<path d="M46.312 17.6713L47.5664 16.5502H51.7304L55.4409 18.2056L55.5742 20.1275L54.0789 22.4235L57.3897 20.4747L61.0195 17.1114L61.5794 15.9365L63.8485 17.5919L60.8721 22.2761L60.1918 23.7573L60.712 24.3185L63.9151 24.5581L65.1566 23.0769L66.1573 19.1525L70.1215 19.4061L69.0542 23.624L66.9184 28.749L59.3513 29.4832L58.5902 30.5236L50.1417 29.1629L48.2339 24.9053L46.6849 21.8623L46.312 17.6713Z" fill="#EDB29F"/>
<path d="M39.2114 42.8428L36.1146 50.7968L38.4106 48.9287L40.6528 42.4161L39.2114 42.8428Z" fill="#FF6D00"/>
<path d="M51.824 28.6824L51.9034 23.0373L47.0603 22.6362L43.4151 23.7176L41.0269 26.7209L39.1306 36.0894L36.2478 42.1356C36.2478 42.1356 36.0082 42.0549 38.531 42.6558C41.0538 43.2567 40.1326 43.2169 42.5349 44.4572C44.9372 45.7 45.6983 45.8986 47.0987 45.7C48.4991 45.5014 49.0616 44.6584 49.0616 44.6584L48.7413 43.7769L52.9848 36.6505L54.9066 30.4442L56.1482 30.0034L58.5902 30.5236L59.3513 29.4832C59.3513 29.4832 60.1521 27.0412 60.0316 26.1994C59.9112 25.3576 60.3122 24.5184 60.3122 24.5184L58.9503 25.2384L56.4288 26.6401L52.585 27.3615L51.824 28.6824ZM41.8276 66.5729C41.8276 66.5729 42.335 67.3736 42.3081 67.8541C42.2812 68.3346 41.5599 68.5485 41.8546 69.0815C42.148 69.6158 42.9218 70.496 42.9218 70.496L42.9475 74.9804L43.7764 76.2617L43.0282 77.3571L41.0538 77.3033L38.8641 71.8042L37.9032 67.3467L38.7309 66.6523L40.5464 66.4127L41.8276 66.5729Z" fill="#AB0738"/>
<path d="M60.3917 58.9519L60.2457 57.4708L62.0599 57.203L64.6493 57.1774L65.7179 58.1639L64.9696 59.0992L62.1406 60.6201L60.2188 61.1275L60.3917 58.9519Z" fill="#E6E7E8"/>
<path d="M44.4978 73.4327L42.0737 73.8465L41.715 71.9041L43.5356 70.6037L45.5638 69.0546L51.2769 67.1328L54.1597 65.2109C54.1597 65.2109 56.9349 63.7169 57.6294 63.2365C58.3238 62.756 60.9927 61.3146 60.9927 61.3146C60.9927 61.3146 65.5834 58.6445 65.9575 59.0186C66.3316 59.3927 64.8364 60.4062 64.8364 60.4062L61.3937 63.9963L59.9254 65.4249C59.9254 65.4249 57.8433 66.4396 57.6294 66.4396C57.4154 66.4396 55.4935 66.2794 55.4935 66.2794L47.9137 71.1367L44.4978 73.4327Z" fill="#FF6D00"/>
<path d="M65.0363 57.5503C65.1772 57.6912 65.6167 57.9103 65.1772 58.3908C64.7377 58.8713 62.7556 60.0526 62.1944 60.2332C61.6333 60.4139 59.5512 61.4748 59.1912 61.6939C58.8312 61.9129 57.8497 62.9367 57.8497 62.9367L57.8702 63.2954L64.9555 59.813L66.2368 58.7713L65.4565 57.6912L65.0363 57.5503Z" fill="#AB0738"/>
<path d="M65.9844 20.0737L69.4271 20.6874L69.9344 17.4843L70.6289 14.2017L70.8159 12.3593L68.6801 11.5328L67.559 10.9178L65.9844 12.3336L66.0382 14.6014L65.9305 17.1908L66.3316 19.0858L65.9844 20.0737Z" fill="#E6E7E8"/>
<path d="M69.536 20.0122C69.536 20.0122 68.6289 20.371 67.9998 20.3005C67.372 20.23 66.1471 19.6727 66.1471 19.6727L66.6622 17.9661C66.6622 17.9661 67.3105 18.3184 68.2253 18.3889C69.1414 18.4593 69.6526 18.4529 69.6526 18.4529L69.536 20.0122Z" fill="#546187"/>
<path d="M9.63495 78.1848C9.46505 78.1851 9.30196 78.1179 9.18158 77.998C9.0612 77.8781 8.99338 77.7153 8.99304 77.5454C8.9927 77.3755 9.05987 77.2124 9.17977 77.092C9.29967 76.9717 9.46248 76.9038 9.63239 76.9035L54.5722 76.728C54.972 76.6895 55.2129 77.0124 55.2154 77.366C55.2158 77.4502 55.1995 77.5335 55.1676 77.6114C55.1358 77.6892 55.0889 77.7601 55.0296 77.8198C54.9704 77.8795 54.8999 77.927 54.8223 77.9595C54.7447 77.992 54.6615 78.0089 54.5774 78.0092L9.63751 78.1848H9.63495Z" fill="#231F20"/>
<path d="M61.286 64.3499C61.2601 64.3501 61.2348 64.3424 61.2135 64.3277C61.1921 64.3131 61.1759 64.2921 61.1669 64.2679C60.9477 63.7101 60.5938 63.2153 60.1368 62.8277C60.1113 62.8057 60.0956 62.7745 60.0929 62.7409C60.0903 62.7074 60.101 62.6741 60.1227 62.6484C60.1445 62.6227 60.1756 62.6067 60.2092 62.6039C60.2428 62.601 60.2761 62.6114 60.302 62.633C60.794 63.0494 61.1759 63.5837 61.4039 64.1756C61.4105 64.1912 61.4139 64.208 61.4138 64.2249C61.4138 64.2419 61.4103 64.2586 61.4036 64.2742C61.3969 64.2898 61.3871 64.3038 61.3748 64.3155C61.3626 64.3272 61.348 64.3363 61.3322 64.3422C61.3174 64.3477 61.3018 64.3503 61.286 64.3499ZM57.7229 66.4511C57.6971 66.4515 57.6719 66.444 57.6506 66.4295C57.6293 66.4151 57.6129 66.3944 57.6037 66.3704C57.3845 65.8127 57.0306 65.3179 56.5736 64.9303C56.548 64.9084 56.532 64.8773 56.5291 64.8437C56.5262 64.8102 56.5367 64.7768 56.5582 64.7509C56.5691 64.738 56.5824 64.7274 56.5973 64.7197C56.6123 64.7119 56.6286 64.7072 56.6454 64.7058C56.6621 64.7043 56.679 64.7062 56.6951 64.7113C56.7111 64.7164 56.726 64.7247 56.7389 64.7355C57.2309 65.1519 57.6127 65.6862 57.8408 66.2781C57.8472 66.2937 57.8504 66.3103 57.8502 66.3271C57.8501 66.3439 57.8465 66.3605 57.8398 66.376C57.8331 66.3914 57.8234 66.4053 57.8113 66.4169C57.7991 66.4285 57.7847 66.4375 57.769 66.4434C57.7544 66.4494 57.7387 66.4511 57.7229 66.4511ZM46.9642 72.0835C46.9385 72.0839 46.9132 72.0763 46.8919 72.0619C46.8706 72.0475 46.8543 72.0268 46.8451 72.0028C46.6266 71.445 46.2731 70.9501 45.8162 70.5626C45.8033 70.5518 45.7927 70.5385 45.785 70.5236C45.7772 70.5086 45.7725 70.4923 45.7711 70.4755C45.7697 70.4587 45.7716 70.4418 45.7767 70.4258C45.7818 70.4097 45.79 70.3949 45.8009 70.382C45.8227 70.3564 45.8538 70.3404 45.8874 70.3375C45.921 70.3346 45.9543 70.3451 45.9802 70.3666C46.3223 70.6562 46.7913 71.1571 47.0834 71.9092C47.09 71.9249 47.0933 71.9418 47.0931 71.9588C47.093 71.9758 47.0894 71.9926 47.0826 72.0082C47.0757 72.0237 47.0658 72.0378 47.0534 72.0494C47.041 72.061 47.0263 72.07 47.0104 72.0758C46.9956 72.0813 46.98 72.0839 46.9642 72.0835Z" fill="#AB0738"/>
<path d="M59.2322 31.1655C59.1965 31.1657 59.1609 31.1627 59.1258 31.1565C58.2674 31.013 55.9253 30.6338 55.4281 30.603C55.2586 30.5925 55.1001 30.515 54.9877 30.3877C54.8752 30.2603 54.818 30.0935 54.8285 29.924C54.8503 29.5716 55.1206 29.2834 55.5076 29.3244C55.9944 29.3538 57.6985 29.6242 58.6723 29.783L58.7145 29.4089C58.7321 29.259 58.802 29.1202 58.912 29.0168C59.0219 28.9135 59.1648 28.8522 59.3154 28.8439C59.6742 28.8221 61.4897 28.726 62.0522 28.8106C62.4686 28.858 65.3886 28.5351 66.2098 28.3391C66.6506 28.234 66.6596 28.2314 67.158 27.2167L67.3873 26.7554C67.9408 25.6459 68.6301 21.642 68.8479 20.1929C68.8518 20.1468 69.0401 18.3159 69.3182 17.3139C69.4783 16.7374 69.7768 15.9084 70.0254 15.2229C70.192 14.7681 70.3329 14.3811 70.3854 14.1902C70.4508 13.9519 70.3906 13.5214 70.3521 13.3625C70.3378 13.3017 70.3322 13.2392 70.3355 13.1768C70.339 13.0939 70.3381 13.0109 70.3329 12.9282C70.1873 13.0009 70.0201 13.0182 69.8627 12.9769C69.6308 12.909 69.4322 12.736 69.3848 12.5028C69.3 12.5737 69.1983 12.6215 69.0896 12.6415C68.9809 12.6615 68.8689 12.653 68.7644 12.6169C68.66 12.5808 68.5666 12.5183 68.4935 12.4354C68.4203 12.3526 68.3699 12.2522 68.347 12.1441C68.3255 12.0514 68.2924 11.9619 68.2483 11.8776C68.2419 11.8994 68.2035 11.9122 68.1945 11.9186C68.0639 11.9842 67.9148 12.0032 67.772 11.9724C67.6291 11.9417 67.5011 11.863 67.4091 11.7494L67.0632 11.3228C66.9084 11.4027 66.7286 11.4196 66.5617 11.3699C66.3947 11.3203 66.2535 11.2079 66.1676 11.0563C66.001 10.7437 66.0932 10.3567 66.4059 10.1914C66.8735 9.94416 67.5898 9.9416 68.0561 10.5143L68.1381 10.6143C68.4277 10.5689 68.7238 10.6333 68.9684 10.7949C69.0264 10.8359 69.0804 10.8822 69.1298 10.9333C69.2682 10.8856 69.4162 10.8726 69.5608 10.8956C69.7054 10.9187 69.8421 10.9769 69.9588 11.0653C70.1266 11.1844 70.2535 11.3292 70.3521 11.4791C70.5557 11.4461 70.7644 11.4761 70.9505 11.5649C71.5757 11.8532 71.6334 12.7155 71.618 13.1601C71.6667 13.3997 71.7641 14.0147 71.6206 14.5323C71.5616 14.7412 71.4092 15.164 71.2311 15.6598C70.9928 16.3158 70.7057 17.1076 70.552 17.6573C70.3022 18.5542 70.1202 20.3351 70.1189 20.353C70.0318 20.9373 69.2772 25.8381 68.5327 27.3269L68.3085 27.7804C67.7678 28.8823 67.5436 29.3397 66.5071 29.587C65.7038 29.7779 62.516 30.1777 61.8562 30.0764C61.6025 30.038 60.703 30.0585 59.9253 30.0957L59.8689 30.5979C59.851 30.7544 59.776 30.8988 59.6583 31.0035C59.5406 31.1082 59.3897 31.1659 59.2322 31.1655Z" fill="#231F20"/>
<path d="M43.5958 65.8387C43.5958 65.8387 44.8976 68.742 45.0769 68.9419C45.2563 69.1418 46.9591 68.6216 46.9591 68.6216L45.378 64.938L43.5958 65.8387Z" fill="#282728"/>
<path d="M44.2736 66.2718C44.2736 66.2718 45.0743 68.0553 45.1845 68.1783C45.2947 68.3025 46.3415 67.9822 46.3415 67.9822L45.369 65.7183L44.2736 66.2718Z" fill="#A7A9AC"/>
<path d="M48.1199 62.6778C48.1199 62.6778 50.3429 66.3051 50.5927 66.5344C50.8439 66.765 52.5185 65.676 52.5185 65.676L49.7715 61.0583L48.1187 62.6791L48.1199 62.6778Z" fill="#282728"/>
<path d="M48.9694 63.1108C48.9694 63.1108 50.3365 65.3389 50.4902 65.4811C50.644 65.6221 51.6728 64.952 51.6728 64.952L49.9854 62.114L48.9694 63.1108Z" fill="#A7A9AC"/>
<path d="M57.7895 63.8232C57.6513 63.8232 57.5168 63.7784 57.4061 63.6955C57.2954 63.6127 57.2145 63.4963 57.1754 63.3636C57.1363 63.231 57.1412 63.0893 57.1893 62.9597C57.2374 62.8301 57.3262 62.7195 57.4423 62.6445C60.0035 60.9917 59.869 59.9257 59.7614 59.0685C59.6589 58.2485 59.3937 57.4465 56.7043 53.5925C54.138 49.9166 48.1379 44.6314 48.0777 44.5789C47.9499 44.4643 47.8729 44.3038 47.8635 44.1325C47.8541 43.9611 47.9132 43.7931 48.0277 43.6653C48.0482 43.6448 50.0136 41.4616 51.7946 37.2796C52.1021 36.5621 52.5569 35.1783 52.9989 33.8382C53.6601 31.8292 54.0816 30.5761 54.3571 30.1148C54.8029 29.373 55.6153 28.972 56.1008 28.7311C56.1918 28.6862 56.2661 28.6517 56.3123 28.6222C56.5647 28.3698 56.9401 28.3954 57.1912 28.6465C57.4423 28.8977 57.4128 29.3256 57.1617 29.5754C57.0426 29.6946 56.8939 29.7676 56.6684 29.8804C56.3097 30.0572 55.7075 30.3544 55.4564 30.7734C55.2334 31.145 54.6684 32.8618 54.2148 34.2392C53.7664 35.6024 53.3026 37.0144 52.9746 37.7831C51.578 41.0529 50.0956 43.1387 49.3897 44.0318C50.8785 45.3707 55.4974 49.627 57.7562 52.8596C60.5237 56.8276 60.8914 57.777 61.0285 58.8725C61.1605 59.927 61.3745 61.6323 58.138 63.7207C58.0344 63.7882 57.9132 63.8239 57.7895 63.8232Z" fill="#231F20"/>
<path d="M42.6913 74.6318C42.3594 74.6318 42.0327 74.5665 41.7483 74.3974C41.3921 74.1872 41.1384 73.7901 41.0167 73.2507C40.8949 72.7112 40.8962 71.9758 41.1819 71.5492C41.4331 71.1725 42.6438 70.3627 43.6676 69.7208C43.9277 69.3223 44.699 68.3563 46.2134 68.0539C47.7765 67.74 53.7395 64.6765 54.2827 64.1973C54.3458 64.1417 54.4193 64.0989 54.4989 64.0716C54.5785 64.0443 54.6627 64.033 54.7467 64.0382C54.8307 64.0434 54.9128 64.0652 54.9884 64.1021C55.064 64.1391 55.1316 64.1906 55.1873 64.2537C55.243 64.3168 55.2857 64.3903 55.313 64.4699C55.3403 64.5495 55.3517 64.6337 55.3464 64.7177C55.3412 64.8017 55.3195 64.8838 55.2825 64.9594C55.2455 65.035 55.194 65.1026 55.1309 65.1583C54.3173 65.8758 48.1391 68.9738 46.4645 69.3095C45.2025 69.5619 44.7118 70.4639 44.7067 70.4729C44.6543 70.5766 44.5746 70.6639 44.476 70.7253C43.5343 71.3147 42.4081 72.0796 42.23 72.2833C42.1634 72.4576 42.2403 73.1623 42.4068 73.2981C42.6387 73.4364 43.3306 73.2993 43.7457 73.029C43.8328 72.9726 55.9304 65.7643 56.3443 65.576C56.4393 65.5296 56.5452 65.5101 56.6505 65.5196C57.2296 65.558 57.924 65.5913 58.088 65.5798C58.3648 65.494 60.2354 64.4626 60.6121 64.1346C60.6635 64.0917 60.7107 64.0441 60.753 63.9923C60.7537 63.8741 60.7872 63.7584 60.8496 63.658C60.912 63.5576 61.001 63.4764 61.1067 63.4235L61.1041 63.4247C61.0951 63.4247 61.4616 63.1339 62.2982 61.8463C63.0208 60.7341 63.9164 60.1986 64.6339 59.7668C65.0081 59.5426 65.3309 59.3504 65.5077 59.139C65.6833 58.934 65.7243 58.8827 65.2169 58.4304C64.9299 58.187 63.5872 57.8308 62.9145 57.8308C62.4443 57.8308 61.0605 58.1152 60.2982 58.2933C60.2164 58.3136 60.1313 58.3173 60.0481 58.3042C59.9648 58.2911 59.885 58.2615 59.8133 58.2171C59.7417 58.1727 59.6797 58.1144 59.6309 58.0456C59.5822 57.9768 59.5477 57.899 59.5294 57.8167C59.5101 57.7349 59.507 57.6501 59.5205 57.5672C59.534 57.4842 59.5637 57.4047 59.608 57.3333C59.6523 57.2619 59.7103 57.1999 59.7786 57.1509C59.8469 57.102 59.9242 57.067 60.0061 57.048C60.2226 56.9967 62.1419 56.5496 62.9145 56.5496C63.6448 56.5496 65.4258 56.8942 66.0279 57.4336C66.4251 57.7924 67.5039 58.7584 66.4892 59.9654C66.1727 60.3382 65.7461 60.5945 65.2938 60.8661C64.6557 61.2479 63.9331 61.681 63.3719 62.5445C62.7223 63.5439 62.2854 64.059 62.0035 64.3255C61.9395 64.5471 61.7844 64.8136 61.4526 65.1006C61.0644 65.4402 58.7402 66.8213 58.1726 66.8585C57.9035 66.8713 57.1348 66.8329 56.7543 66.8098C55.4435 67.5632 44.8976 73.808 44.4466 74.1027C44.0545 74.3589 43.3639 74.6318 42.6913 74.6318Z" fill="#231F20"/>
<path d="M42.7655 78.0452C42.3389 78.0452 41.7405 77.9939 41.0909 77.7774C39.4407 77.2264 36.8871 68.1552 36.8654 68.0655C36.7116 67.3992 36.9205 66.7394 37.424 66.2999C38.0544 65.749 39.0038 65.6337 39.9711 66.0001C40.7578 66.2974 41.3728 66.1282 41.9173 65.9745L42.0903 65.9258C42.713 65.7605 44.1057 65.3903 46.148 63.1634C48.4056 60.6983 51.879 59.0071 52.0251 58.9353C52.178 58.8612 52.3541 58.8509 52.5146 58.9067C52.6751 58.9624 52.8069 59.0796 52.881 59.2326C52.9551 59.3855 52.9654 59.5616 52.9096 59.7221C52.8539 59.8826 52.7366 60.0144 52.5837 60.0884C52.5504 60.1051 49.182 61.7502 47.091 64.0296C44.7976 66.5331 43.091 66.9867 42.4478 67.1571L42.2594 67.2083C41.638 67.3813 40.6963 67.644 39.5175 67.1994C38.9141 66.9687 38.4746 67.0841 38.267 67.2647C38.1951 67.3264 38.1424 67.4076 38.1153 67.4985C38.0883 67.5894 38.088 67.6862 38.1146 67.7772C38.4733 69.3365 40.7463 76.0016 41.556 76.5897C42.0506 76.7511 42.5221 76.7754 42.836 76.7652C42.9603 76.368 43.0218 75.9708 42.9654 75.8427C42.1454 75.3174 42.2312 73.9349 42.2569 73.6646C42.2627 73.5801 42.2856 73.4977 42.3244 73.4224C42.3631 73.347 42.4168 73.2804 42.4821 73.2266C42.5475 73.1727 42.6232 73.1328 42.7045 73.1092C42.7858 73.0856 42.8711 73.0788 42.9551 73.0893C43.1242 73.1052 43.2799 73.1875 43.3883 73.3182C43.4966 73.4489 43.5487 73.6172 43.533 73.7863C43.4945 74.2232 43.5919 74.7421 43.7316 74.8356C44.6989 75.4788 44.0942 77.1291 43.8853 77.6198C43.8437 77.7183 43.7781 77.8047 43.6943 77.8712C43.6106 77.9377 43.5115 77.9821 43.4061 78.0003C43.1942 78.0326 42.9799 78.0476 42.7655 78.0452Z" fill="#231F20"/>
<path d="M16.8164 69.2148C16.8164 69.2148 13.7734 71.4044 13.6389 71.9644C13.5069 72.5255 13.3468 73.1931 13.908 73.1393C14.4691 73.0854 17.1111 72.6857 17.7773 73.5659C18.4436 74.4474 18.9253 75.8081 18.8177 76.0221C18.7114 76.236 29.4149 67.0789 30.0286 66.7061C30.6436 66.332 31.1766 66.519 31.5777 66.0399C31.9787 65.5607 34.4067 63.5568 34.4861 63.3159C34.5656 63.075 36.9692 61.0737 37.5304 60.5535C38.0916 60.0334 39.0115 59.5119 38.5707 58.6317C38.13 57.7514 37.1691 56.7495 36.2888 56.1486C35.4086 55.5477 34.0864 54.9084 32.8858 55.549C31.6853 56.1896 29.7211 57.5106 29.5226 57.59C29.324 57.6694 28.9204 57.4709 28.2413 58.1512C27.5622 58.8315 26.0376 59.8322 25.839 60.1128C25.6404 60.3934 25.5981 61.1134 25.5981 61.1134L16.8164 69.2148Z" fill="#FF6D00"/>
<path d="M13.3467 74.1001L15.5351 72.7125L17.457 73.4595L18.7113 75.0341V77.2494L14.2808 77.7299L12.0847 77.4493L12.3051 75.7017L12.9995 74.6344L13.3467 74.1001Z" fill="#AB0738"/>
<path d="M18.7088 76.6639C18.5935 76.6639 18.5179 76.605 18.4218 76.5294C18.3294 76.456 18.2588 76.3587 18.2177 76.248C18.1766 76.1373 18.1666 76.0175 18.1887 75.9016C18.1477 75.6069 17.7838 74.6357 17.2662 73.9541C17.1765 73.8349 16.6858 73.4685 14.1886 73.7529L13.9682 73.7785C13.5057 73.8221 13.2353 73.603 13.1175 73.4672C12.7305 73.0226 12.8817 72.3858 13.015 71.8246C13.0624 71.6196 13.2059 71.0277 16.4103 68.7189L24.9818 60.811C25.0203 60.4881 25.1087 60.0333 25.3175 59.7399C25.4623 59.5387 25.7634 59.3055 26.381 58.843C26.8602 58.4791 27.4572 58.0281 27.7878 57.6988C28.3925 57.0941 28.8756 56.9942 29.3086 56.9762C29.3599 56.9544 29.6546 56.7661 30.0428 56.5201C30.7936 56.0435 31.8224 55.39 32.5848 54.9826C33.3894 54.5559 34.7424 54.3202 36.6489 55.6194C37.6765 56.3202 38.6784 57.4157 39.1448 58.3446C39.738 59.531 38.7668 60.3446 38.2466 60.7815C38.148 60.8623 38.0519 60.943 37.9648 61.0224C37.7879 61.189 37.4266 61.5003 37.0128 61.8616C36.4003 62.3908 35.278 63.3607 35.0499 63.6246C34.9346 63.8488 34.6309 64.1358 33.4304 65.1967C32.8923 65.6721 32.2235 66.264 32.0684 66.4498C31.7033 66.8867 31.2702 66.9841 30.923 67.0597C30.718 67.1058 30.5386 67.1455 30.3618 67.2544C30.0223 67.4748 26.8204 70.1744 24.2477 72.3423C20.0362 75.8913 19.1201 76.6639 18.7088 76.6639ZM15.7876 72.3627C16.8613 72.3627 17.812 72.5498 18.2873 73.1802C18.5307 73.5005 18.9484 74.2078 19.2149 74.8932C20.1656 74.1078 21.8671 72.6728 23.4213 71.3634C27.101 68.2615 29.3586 66.3639 29.6968 66.1589C30.0556 65.9411 30.3836 65.8681 30.645 65.8104C30.9268 65.7464 31.0076 65.7208 31.0857 65.6285C31.2869 65.3851 31.7853 64.9418 32.5822 64.2371C33.0537 63.8207 33.7558 63.1993 33.925 63.0071C34.0557 62.7572 34.4375 62.3921 36.1736 60.8917C36.5746 60.5458 36.9218 60.2434 37.0961 60.0845C37.196 59.991 37.3075 59.8949 37.4228 59.7988C38.0801 59.2479 38.1018 59.1262 37.9993 58.9186C37.6278 58.1793 36.777 57.2581 35.9288 56.679C34.8231 55.923 33.9019 55.7308 33.187 56.1152C32.4682 56.4983 31.4637 57.1351 30.7295 57.6015C30.0402 58.0384 29.8801 58.137 29.7596 58.1844C29.6084 58.2459 29.4713 58.2511 29.3612 58.2562C29.1972 58.2626 29.028 58.269 28.6949 58.6047C28.3003 58.998 27.6904 59.4593 27.1523 59.8642C26.8486 60.0935 26.4322 60.4087 26.3451 60.5048C26.2849 60.7153 26.2488 60.9319 26.2375 61.1505C26.2279 61.3164 26.1544 61.4721 26.0325 61.5849L17.2508 69.6862C17.2319 69.7042 17.2117 69.7209 17.1906 69.7362C15.9157 70.6523 14.4231 71.8567 14.236 72.1872C14.227 72.2436 14.204 72.3538 14.1847 72.4653C14.7203 72.4063 15.27 72.3627 15.7876 72.3627Z" fill="#231F20"/>
<path d="M18.6717 78.1298H18.6678L12.0822 78.0913C11.9931 78.0907 11.905 78.0716 11.8236 78.0352C11.7423 77.9988 11.6693 77.9459 11.6094 77.8799C11.5504 77.8137 11.5056 77.7361 11.4779 77.652C11.4501 77.5678 11.4399 77.4788 11.448 77.3905C11.4531 77.3264 11.5992 75.7979 11.9221 74.892C12.2782 73.8965 13.6697 72.8472 13.8273 72.7306C13.964 72.6295 14.1354 72.5868 14.3036 72.6121C14.4718 72.6373 14.6231 72.7283 14.7241 72.8651C14.8252 73.0019 14.8679 73.1732 14.8426 73.3414C14.8174 73.5096 14.7264 73.6609 14.5896 73.762C14.0797 74.1387 13.2904 74.8728 13.129 75.3225C12.9881 75.7159 12.8804 76.3206 12.8087 76.8139L18.2002 76.8472C18.2694 76.5987 18.3373 76.3142 18.3539 76.1169C18.336 75.9196 17.9465 75.0817 17.5186 74.3513C17.476 74.2787 17.4481 74.1985 17.4366 74.1151C17.425 74.0317 17.43 73.9469 17.4513 73.8655C17.4725 73.784 17.5096 73.7076 17.5604 73.6405C17.6111 73.5733 17.6747 73.5169 17.7473 73.4743C17.8199 73.4318 17.9001 73.4039 17.9835 73.3924C18.0669 73.3808 18.1517 73.3858 18.2331 73.407C18.3146 73.4283 18.391 73.4653 18.4581 73.5161C18.5252 73.5669 18.5817 73.6304 18.6243 73.703C19.1086 74.5307 19.6762 75.6403 19.6301 76.2207C19.5852 76.7844 19.3097 77.6044 19.279 77.6967C19.2359 77.8235 19.1541 77.9336 19.0452 78.0115C18.9362 78.0894 18.8056 78.1299 18.6717 78.1298Z" fill="#231F20"/>
<path d="M61.0323 16.8706L63.4488 17.9392L65.263 16.1236L65.5833 14.2812L66.7044 11.4253L66.9991 10.1645L65.0503 9.69048L63.3552 8.86279L62.1675 9.85064L60.9657 11.5854L61.2591 13.7482L61.6729 15.0089L61.0323 16.8706Z" fill="#E6E7E8"/>
<path d="M63.9729 9.59695C63.9729 9.59695 63.0593 10.417 62.8428 11.1345C62.3764 12.6873 61.5462 12.5964 61.5462 12.5964L61.14 12.2043L61.9844 9.91342L62.9632 9.16004L63.7781 8.70776L63.9729 9.59695Z" fill="#546187"/>
<path d="M55.227 9.9313C55.227 9.9313 44.6567 6.43349 44.5234 6.35405L39.1845 3.12402L38.1172 3.23037L41.1602 6.56802L47.7535 9.15615L60.4327 12.8936L61.0195 12.3862L60.2726 11.3189L55.227 9.9313Z" fill="#D3CABE"/>
<path d="M61.673 15.009C61.673 15.009 62.6339 14.8488 63.2361 15.0487C63.8383 15.2486 64.9171 16.0506 64.9171 16.0506L64.0561 17.6112C64.0561 17.6112 63.4949 17.1307 62.6147 16.8706C61.7345 16.6105 61.2335 16.5106 61.2335 16.5106L61.673 15.009Z" fill="#546187"/>
<path d="M45.4178 28.3621C45.4178 28.3621 43.8162 30.1635 44.3761 34.3276C44.936 38.4916 47.2205 40.3738 47.2205 40.3738C47.2205 40.3738 45.0167 36.5697 45.4178 33.6075C45.8188 30.6452 46.339 28.6824 46.339 28.6824L45.4165 28.3621H45.4178Z" fill="#FF6D00"/>
<path d="M44.804 31.0437C44.804 31.0437 43.2024 32.8464 43.7623 37.0105C44.3222 41.1745 46.6054 43.0567 46.6054 43.0567C46.6054 43.0567 44.4029 39.2527 44.804 36.2891C45.205 33.3256 45.7239 31.3653 45.7239 31.3653L44.804 31.0437Z" fill="#FF6D00"/>
<path d="M54.8272 61.2338C54.7851 61.2339 54.743 61.2296 54.7017 61.221C54.6222 61.2056 54.1764 61.1031 53.2282 60.6508C52.4826 60.2921 52.0046 59.7975 51.6549 59.4349C51.5293 59.303 51.414 59.1825 51.2987 59.0877C50.9335 58.7943 47.4844 57.0339 45.378 56.1831C44.1429 55.6834 43.8187 55.7859 43.1704 55.9935C42.8527 56.096 42.4568 56.2216 41.9071 56.3036C40.7412 56.4727 39.2088 57.8667 38.7168 58.3907C38.6003 58.5144 38.4393 58.5867 38.2695 58.5918C38.0996 58.5968 37.9347 58.5342 37.811 58.4176C37.6873 58.3011 37.6149 58.1402 37.6099 57.9703C37.6049 57.8004 37.6675 57.6355 37.7841 57.5118C37.9967 57.2863 39.9109 55.2991 41.7213 55.0338C42.1672 54.9698 42.4786 54.8698 42.7809 54.7725C43.6586 54.4906 44.3043 54.3676 45.8585 54.9941C47.8111 55.7834 51.5498 57.6386 52.1097 58.096C52.2609 58.219 52.4121 58.3741 52.5786 58.547C52.89 58.8712 53.2449 59.2389 53.783 59.4952C54.5902 59.8821 54.9566 59.9667 54.9592 59.9667C55.3026 60.0435 55.523 60.3818 55.4499 60.7264C55.42 60.8696 55.3418 60.998 55.2284 61.0904C55.1151 61.1828 54.9735 61.2334 54.8272 61.2338Z" fill="#231F20"/>
<path d="M51.8906 10.4643L53.3051 9.45081L59.6319 11.292L59.3116 12.44L51.8906 10.4643Z" fill="#3D4760"/>
<path d="M52.3173 8.94348L51.3563 10.2516L52.8515 10.7577L53.7061 9.58411L52.3173 8.94348Z" fill="#AB0738"/>
<path d="M30.1222 57.9115C30.0125 57.9116 29.9046 57.8834 29.8089 57.8297C29.7131 57.776 29.6328 57.6987 29.5756 57.605C29.5184 57.5114 29.4861 57.4047 29.482 57.295C29.4779 57.1853 29.502 57.0765 29.552 56.9788C29.5674 56.9493 31.0767 53.996 32.244 51.8769C32.9935 50.5136 33.2126 49.3208 33.406 48.2689C33.5021 47.7423 33.5944 47.2439 33.7417 46.766C34.7411 43.5077 35.8302 41.0234 36.9769 39.3808C38.4734 37.2347 39.4753 30.5645 39.4856 30.4966C39.4779 25.7765 43.3934 21.861 48.207 21.861C50.7516 22.2275 53.5268 22.5721 53.9547 22.5273C54.0162 22.4888 54.2635 22.1877 54.4455 21.9686C54.8042 21.5369 55.2475 20.9987 55.8728 20.5823C56.9401 19.87 60.229 16.8706 60.516 16.4926C60.6416 16.3196 60.8658 15.5906 61.017 14.9551L60.3046 13.5829C60.2433 13.4647 60.2204 13.3303 60.2393 13.1985C60.3033 12.736 60.6608 10.3861 61.354 9.59946C62.0253 8.83968 63.0183 8.31821 63.058 8.29514C63.1335 8.25562 63.2162 8.23164 63.3011 8.22459C63.3861 8.21755 63.4716 8.2276 63.5526 8.25414C63.8383 8.34511 64.1714 8.49246 64.402 8.71924C64.6852 8.69874 65.0837 8.73077 65.3617 9.07414C65.4335 9.07158 65.5257 9.06902 65.5898 9.06518C65.8563 9.05108 66.1791 9.02802 66.4559 9.20483H66.5456C66.7634 9.21124 67.1311 9.21764 67.4002 9.50464C67.4849 9.59617 67.5499 9.70414 67.5911 9.82184C67.6323 9.93954 67.6489 10.0645 67.6398 10.1888C67.627 10.5296 67.413 11.1011 67.0389 12.0825C66.8005 12.7129 66.5007 13.497 66.4585 13.7879C66.3175 14.7462 66.0382 16.13 65.2528 17.0896C64.6404 17.8379 63.3758 19.3844 63.14 19.8533C63.1144 19.9058 59.55 25.7701 58.9465 26.1724C58.9247 26.1852 56.7953 27.5613 55.9484 27.5613C55.605 27.5613 53.7638 27.8265 52.6825 27.9944L52.3878 28.0712L52.5774 29.2628C52.5929 29.3593 52.5859 29.458 52.557 29.5513C52.5281 29.6447 52.4781 29.7301 52.4108 29.8009C52.3432 29.8706 52.2611 29.9247 52.1704 29.9592C52.0796 29.9937 51.9824 30.0079 51.8855 30.0008C51.4858 29.9636 47.9623 29.6292 47.209 29.4191C46.4287 29.2026 45.1205 28.4402 44.9732 28.3531C44.8971 28.3124 44.83 28.2567 44.776 28.1893C44.722 28.122 44.6822 28.0445 44.6589 27.9614C44.6356 27.8783 44.6293 27.7913 44.6404 27.7058C44.6515 27.6202 44.6799 27.5377 44.7237 27.4634C44.7674 27.389 44.8258 27.3242 44.8953 27.273C44.9647 27.2217 45.0438 27.185 45.1278 27.1651C45.2117 27.1452 45.2989 27.1424 45.3839 27.157C45.469 27.1716 45.5502 27.2032 45.6228 27.25C45.9815 27.4601 47.0283 28.0392 47.551 28.1853C47.9546 28.2967 49.7458 28.5005 51.1808 28.6452L51.0309 27.701C51.0064 27.544 51.0411 27.3836 51.1282 27.2507C51.2153 27.1179 51.3487 27.0222 51.5024 26.9822L52.4236 26.7413C52.9707 26.6529 55.4064 26.2801 55.9471 26.2801C56.2751 26.2416 57.705 25.4601 58.2354 25.1064C58.6159 24.7105 61.7114 19.8469 61.9946 19.2806C62.2713 18.7296 63.222 17.5496 64.256 16.2837C64.9133 15.4817 65.1221 14.0659 65.19 13.6008C65.249 13.2023 65.486 12.5604 65.8422 11.6277C65.9754 11.2753 66.1561 10.8026 66.265 10.4746C66.1145 10.4578 65.9692 10.4098 65.8383 10.3336H65.8358C65.7845 10.3336 65.7294 10.3413 65.6718 10.3451C65.363 10.3644 64.812 10.399 64.4584 10.0018C63.805 10.0607 63.5744 9.81343 63.4706 9.61099C63.4488 9.59819 63.4266 9.58622 63.404 9.57511C63.1208 9.74936 62.6506 10.0671 62.3149 10.4489C62.0394 10.7603 61.7089 12.0633 61.5372 13.1767L62.2624 14.5733C62.3316 14.7065 62.352 14.859 62.32 15.0051C62.2329 15.4022 61.9216 16.7386 61.5513 17.2472C61.1464 17.8046 57.664 20.9283 56.5839 21.6483C56.1149 21.961 55.7536 22.3991 55.4333 22.7861C55.0374 23.264 54.694 23.6778 54.2007 23.7842C53.6178 23.9059 50.1353 23.4306 48.1148 23.1371C44.1006 23.1436 40.7604 26.4838 40.7604 30.5902C40.7105 30.9707 39.697 37.7216 38.0288 40.1137C36.9577 41.6474 35.9275 44.0126 34.9653 47.1414C34.8372 47.5616 34.7552 48.0126 34.6668 48.4995C34.4656 49.5911 34.2158 50.9492 33.3676 52.4944C32.2106 54.5957 30.709 57.5336 30.6936 57.5618C30.6401 57.6669 30.5585 57.7553 30.4578 57.817C30.3572 57.8787 30.2402 57.9114 30.1222 57.9115Z" fill="#231F20"/>
<path d="M38.5311 1.57495L60.1521 11.0652L60.9657 11.5854C60.9657 11.5854 57.7498 11.1446 57.1886 10.7846C56.6274 10.4245 46.4581 7.94148 44.5773 6.86139C42.6964 5.78129 38.4106 3.05736 38.4106 3.05736L37.5304 1.81583L38.5298 1.57623L38.5311 1.57495Z" fill="#FFF3E3"/>
<path d="M63.1271 25.3089C63.072 25.3089 63.017 25.3089 62.9606 25.3038C61.9791 25.2525 59.6447 25.1987 59.6421 25.1987L59.6729 23.9175C59.6729 23.9175 62.0355 23.9713 63.0298 24.0251C63.7562 24.0558 64.2316 23.6548 64.3418 23.3524C64.598 22.6477 65.8229 18.5439 65.8498 18.0096C65.8498 17.7662 65.7524 17.5714 65.5666 17.2217C65.4788 17.0624 65.3968 16.9 65.3206 16.7348C65.0208 16.0737 64.9055 15.0499 64.8927 14.9372C64.8838 14.8535 64.8915 14.7688 64.9154 14.6881C64.9392 14.6074 64.9788 14.5321 65.0317 14.4667C65.0847 14.4012 65.15 14.3469 65.224 14.3067C65.298 14.2665 65.3791 14.2413 65.4629 14.2325C65.796 14.2017 66.1291 14.449 66.1675 14.8014C66.1945 15.0551 66.3046 15.8033 66.4879 16.2056C66.5558 16.3555 66.6275 16.4901 66.6967 16.6182C66.9107 17.0205 67.1323 17.4343 67.1323 18.0186C67.1323 18.7873 65.6627 23.4665 65.5449 23.7906C65.263 24.5619 64.3533 25.3089 63.1271 25.3089ZM60.8747 13.588C60.8425 13.588 60.8104 13.5854 60.7786 13.5803C59.7908 13.4343 59.4051 13.2472 59.2411 13.1255C58.4339 12.8116 51.6407 11.0563 49.396 10.5271C47.2819 10.0313 42.9987 8.33234 41.3536 6.90503C40.7924 6.41815 40.1966 5.96331 39.6303 5.52896C38.6476 4.77943 37.7212 4.0709 37.1447 3.33034C36.6616 2.71021 36.6809 2.19515 36.7821 1.87227C37.0114 1.14068 37.8096 0.8729 37.8993 0.844713C38.0455 0.799717 38.2028 0.807425 38.3439 0.866494L61.4064 10.7565C61.7319 10.8974 61.8805 11.2728 61.7421 11.5982C61.6739 11.7535 61.5475 11.8758 61.3901 11.9388C61.2327 12.0019 61.0568 12.0006 60.9003 11.9352L38.1043 2.15927C38.0531 2.19515 38.0134 2.23231 38.0044 2.25537C38.0044 2.25537 38.0018 2.34506 38.1556 2.54493C38.6296 3.15353 39.4932 3.81209 40.4067 4.51037C40.9961 4.96009 41.6111 5.43159 42.1954 5.9364C43.6175 7.17409 47.7227 8.81921 49.6881 9.28046C49.7868 9.30352 59.5922 11.6815 60.0444 12.1338C60.0919 12.1428 60.5634 12.2542 60.9669 12.3132C61.1258 12.338 61.2695 12.4216 61.3696 12.5474C61.4697 12.6732 61.5188 12.8321 61.5072 12.9924C61.4956 13.1528 61.4241 13.3029 61.3069 13.413C61.1897 13.5231 61.0355 13.5851 60.8747 13.5867V13.588Z" fill="#231F20"/>
<path d="M46.8989 15.8571L47.1923 14.2555L49.3282 12.8936L51.81 12.7334L54.2392 13.7481L55.6806 16.7373L55.1732 17.5919L52.3173 17.0038L46.8989 15.8571Z" fill="#546187"/>
<path d="M46.7118 17.8584C46.7118 17.8584 47.2192 16.8719 48.6081 17.0846C49.9957 17.2985 53.145 17.6983 53.5716 18.2595C53.9996 18.8194 55.227 18.4196 55.227 18.4196L52.5043 17.1115L47.806 16.2031L45.9648 15.9097L46.0712 17.1909L46.7118 17.8584Z" fill="#3D4760"/>
<path d="M67.9793 15.269L67.199 14.8884L67.5795 13.6482L72.5841 15.0691L71.8435 16.9705L67.9793 15.269Z" fill="#AB0738"/>
<path d="M54.466 18.2722C54.466 18.2722 53.646 19.3536 53.8663 20.1339C54.0867 20.9142 54.8862 20.8744 54.8862 20.8744L55.7075 19.0935L54.466 18.2722Z" fill="#E6E7E8"/>
<path d="M71.8435 17.6112C71.7796 17.6115 71.7161 17.602 71.6551 17.583L69.1324 16.8014C68.9069 16.7335 68.2099 16.3325 67.0593 15.6124C66.9152 15.5222 66.8129 15.3784 66.7748 15.2128C66.7367 15.0471 66.766 14.8731 66.8562 14.729C66.9464 14.5849 67.0902 14.4826 67.2559 14.4445C67.4215 14.4064 67.5956 14.4357 67.7396 14.5259C68.4635 14.9795 69.3527 15.5125 69.5308 15.5855L71.4399 16.1762L71.7589 15.2588C71.8215 15.1074 71.9396 14.9858 72.089 14.9186C72.2384 14.8515 72.4078 14.8441 72.5625 14.8978C72.7173 14.9515 72.8456 15.0623 72.9213 15.2075C72.997 15.3528 73.0143 15.5214 72.9697 15.679L72.4495 17.1807C72.4058 17.3065 72.3239 17.4156 72.2153 17.4928C72.1067 17.57 71.9767 17.6113 71.8435 17.6112ZM47.3229 23.0014C47.1348 23.0013 46.9541 22.9278 46.8194 22.7964C46.5913 22.5683 46.4312 22.1711 46.1352 20.535C46.0404 20.0071 46.0545 18.6336 46.066 18.0698C45.7367 17.6355 45.1166 16.7181 45.2665 16.1672C45.2985 15.9865 45.3562 15.6637 45.6727 15.4446C45.8221 15.3449 45.9937 15.2834 46.1724 15.2652C46.3261 14.7271 46.6977 13.7456 47.4741 13.1575C48.1916 12.613 49.6228 11.7366 51.1923 11.9954L51.6612 12.0646C52.7567 12.2235 54.1187 12.4221 54.9464 13.4189C55.9483 14.6271 56.0879 16.1198 56.1072 16.5477C56.1328 17.1461 56.2109 17.9238 56.2109 17.9276C56.2278 18.0875 56.1837 18.2478 56.0875 18.3765C55.9913 18.5052 55.8501 18.5929 55.692 18.6221L54.8374 18.7822C54.7465 18.7986 54.6532 18.7953 54.5636 18.7725C54.4741 18.7496 54.3906 18.7078 54.3187 18.6498C54.2467 18.5919 54.1881 18.5191 54.1467 18.4365C54.1054 18.3539 54.0823 18.2634 54.0789 18.1711C54.0056 18.1165 53.9271 18.0693 53.8445 18.0301C53.4652 17.8828 49.7317 17.1076 47.3383 16.6464C47.0967 16.5959 46.8525 16.5596 46.6067 16.5375C46.7643 16.8347 47.0705 17.2896 47.1884 17.4305C47.2883 17.5509 47.3549 17.7188 47.3524 17.8751C47.3319 18.6144 47.3268 19.9264 47.3959 20.3069C47.6266 21.5805 47.7444 21.888 47.7829 21.9623C48.0327 22.2121 48.0045 22.5811 47.7534 22.8323C47.6964 22.8875 47.629 22.931 47.5551 22.96C47.4812 22.989 47.4023 23.0031 47.3229 23.0014ZM47.4844 15.369L47.5817 15.3869C47.838 15.4382 53.8573 16.6041 54.4185 16.8847C54.594 16.9744 54.7414 17.0641 54.8605 17.1576C54.8472 16.9732 54.8361 16.7887 54.8272 16.6041C54.8169 16.3735 54.7247 15.1614 53.9598 14.2376C53.4473 13.6188 52.4466 13.474 51.478 13.3331L50.9873 13.2588C49.8508 13.0794 48.6926 13.8417 48.2467 14.1787C47.8815 14.4567 47.6304 14.9641 47.4844 15.369Z" fill="#231F20"/>
<path d="M52.7273 23.8585C52.5384 23.8621 52.3524 23.8124 52.1905 23.715C52.0886 23.6536 52.0007 23.5716 51.9323 23.4744C51.864 23.3771 51.8166 23.2666 51.7933 23.15C51.77 23.0226 51.7859 22.8911 51.8388 22.7729C51.8918 22.6547 51.9793 22.5553 52.0899 22.4878C52.2005 22.4204 52.329 22.3881 52.4583 22.3951C52.5877 22.4022 52.7118 22.4483 52.8144 22.5273C53.3385 22.1609 54.6159 20.4812 54.8106 19.9366C54.9541 19.5407 54.9618 18.5554 54.9349 18.0263C54.9304 17.9422 54.9425 17.8581 54.9706 17.7788C54.9986 17.6994 55.042 17.6263 55.0983 17.5637C55.1545 17.5011 55.2226 17.4503 55.2986 17.414C55.3745 17.3777 55.4569 17.3568 55.5409 17.3523C55.9061 17.3049 56.1957 17.606 56.2136 17.9584C56.2226 18.1249 56.2918 19.6048 56.0176 20.3723C55.7985 20.9796 54.0726 23.5216 53.195 23.7842C53.0284 23.8342 52.8734 23.8585 52.7273 23.8585Z" fill="#231F20"/>
<path d="M64.6365 13.9237C64.6 13.9238 64.5644 13.9131 64.534 13.893C63.8299 13.4345 63.0006 13.2066 62.1611 13.2408C62.0432 13.2511 61.9663 13.1626 61.9612 13.055C61.9602 13.004 61.9792 12.9546 62.0142 12.9175C62.0492 12.8804 62.0973 12.8584 62.1483 12.8564C62.7607 12.8423 63.3373 12.9307 63.8908 13.1396C64.1855 13.2511 64.4712 13.3958 64.7403 13.5701C64.783 13.5977 64.8131 13.6411 64.8239 13.6908C64.8347 13.7405 64.8254 13.7925 64.7979 13.8353C64.7807 13.8626 64.7569 13.8851 64.7287 13.9008C64.7005 13.9165 64.6687 13.9235 64.6365 13.9237Z" fill="#546187"/>
<path d="M14.8637 56.7636C16.066 56.7636 17.0406 55.789 17.0406 54.5868C17.0406 53.3845 16.066 52.4099 14.8637 52.4099C13.6615 52.4099 12.6869 53.3845 12.6869 54.5868C12.6869 55.789 13.6615 56.7636 14.8637 56.7636Z" fill="#F1F2F2"/>
<path d="M14.8651 57.4042C14.1326 57.3821 13.4375 57.0756 12.9271 56.5496C12.4168 56.0237 12.1313 55.3196 12.1313 54.5868C12.1313 53.8539 12.4168 53.1498 12.9271 52.6239C13.4375 52.0979 14.1326 51.7914 14.8651 51.7693C16.418 51.7693 17.6826 53.0326 17.6826 54.5868C17.6826 56.1409 16.418 57.4042 14.8638 57.4042H14.8651ZM14.8651 53.0505C14.0169 53.0505 13.3276 53.7399 13.3276 54.5868C13.3276 55.4337 14.0169 56.123 14.8651 56.123C15.2617 56.1068 15.6366 55.9378 15.9115 55.6515C16.1864 55.3652 16.3399 54.9837 16.3399 54.5868C16.3399 54.1899 16.1864 53.8083 15.9115 53.522C15.6366 53.2357 15.2617 53.0667 14.8651 53.0505Z" fill="#231F20"/>
<path d="M29.4623 65.0456C29.432 65.0457 29.4027 65.0351 29.3794 65.0156C29.3562 64.9962 29.3407 64.9691 29.3355 64.9392C29.2147 64.2121 28.8781 63.538 28.3694 63.0045C27.9517 62.5747 27.4334 62.2559 26.8614 62.0769C26.829 62.0669 26.8018 62.0444 26.786 62.0143C26.7701 61.9843 26.7668 61.9492 26.7768 61.9168C26.7986 61.8514 26.8665 61.8143 26.9383 61.8322C27.3649 61.9667 27.9928 62.2473 28.5539 62.8264C29.2804 63.5773 29.5149 64.4459 29.5892 64.8969C29.5948 64.9304 29.5868 64.9647 29.5671 64.9923C29.5474 65.02 29.5176 65.0386 29.4841 65.0443L29.4623 65.0456ZM20.1195 73.48C20.0892 73.4802 20.0598 73.4696 20.0366 73.4501C20.0134 73.4306 19.9978 73.4036 19.9926 73.3737C19.8718 72.6465 19.5352 71.9725 19.0266 71.439C18.6083 71.0101 18.0901 70.6918 17.5185 70.5127C17.4506 70.4909 17.4135 70.4178 17.434 70.3512C17.4545 70.2846 17.5288 70.2487 17.5954 70.2667C18.2104 70.4601 18.7678 70.8048 19.2111 71.2609C19.9375 72.0117 20.172 72.8804 20.2463 73.3314C20.2519 73.3649 20.2439 73.3992 20.2242 73.4268C20.2046 73.4544 20.1747 73.4731 20.1413 73.4788L20.1195 73.48ZM33.3868 61.8822C33.3563 61.8826 33.3266 61.8721 33.3031 61.8526C33.2796 61.8331 33.2639 61.8059 33.2587 61.7758C33.1379 61.0487 32.8013 60.3746 32.2926 59.8411C31.8748 59.4118 31.3565 59.0934 30.7846 58.9148C30.7685 58.9097 30.7536 58.9015 30.7407 58.8906C30.7278 58.8797 30.7171 58.8664 30.7094 58.8514C30.7017 58.8364 30.697 58.82 30.6956 58.8032C30.6942 58.7863 30.6961 58.7694 30.7013 58.7533C30.7231 58.6867 30.7872 58.6508 30.8628 58.6688C31.2894 58.8033 31.9159 59.0852 32.4771 59.6643C33.2049 60.4151 33.4381 61.2825 33.5124 61.7335C33.5179 61.767 33.51 61.8013 33.4903 61.8289C33.4706 61.8565 33.4408 61.8752 33.4073 61.8809L33.3868 61.8822ZM19.0842 69.6094C19.0661 69.6095 19.0482 69.6058 19.0316 69.5985C19.0151 69.5912 19.0003 69.5805 18.9881 69.5671C18.966 69.5415 18.9549 69.5082 18.957 69.4744C18.9592 69.4406 18.9745 69.4091 18.9997 69.3864L25.8338 63.3543C25.8464 63.343 25.8611 63.3342 25.8771 63.3286C25.8931 63.3229 25.91 63.3205 25.927 63.3215C25.9439 63.3224 25.9604 63.3267 25.9757 63.3341C25.9909 63.3415 26.0046 63.3519 26.0158 63.3646C26.0381 63.3904 26.0493 63.4241 26.0469 63.4582C26.0445 63.4923 26.0287 63.524 26.003 63.5465L19.1701 69.5786C19.1461 69.5989 19.1156 69.6098 19.0842 69.6094ZM27.848 61.3274C27.8217 61.3272 27.7961 61.3189 27.7747 61.3037C27.7533 61.2884 27.7371 61.267 27.7283 61.2422C27.7195 61.2175 27.7185 61.1906 27.7255 61.1653C27.7324 61.1399 27.747 61.1174 27.7673 61.1006L30.1619 59.1467C30.1881 59.1254 30.2217 59.1154 30.2553 59.1188C30.2889 59.1221 30.3198 59.1386 30.3413 59.1646C30.3627 59.1907 30.3729 59.2242 30.3698 59.2577C30.3667 59.2913 30.3505 59.3223 30.3246 59.344L27.9287 61.2979C27.9058 61.3173 27.8767 61.3278 27.8467 61.3274H27.848ZM28.8691 61.9347C28.8429 61.9345 28.8173 61.9262 28.7959 61.911C28.7745 61.8957 28.7583 61.8743 28.7494 61.8495C28.7406 61.8248 28.7396 61.7979 28.7466 61.7726C28.7536 61.7472 28.7682 61.7247 28.7884 61.7079L31.1843 59.7553C31.1973 59.7446 31.2122 59.7366 31.2282 59.7317C31.2443 59.7268 31.2611 59.7252 31.2778 59.7268C31.2945 59.7285 31.3106 59.7335 31.3254 59.7414C31.3401 59.7494 31.3532 59.7602 31.3637 59.7732C31.3851 59.7993 31.3954 59.8328 31.3922 59.8663C31.3891 59.8999 31.3729 59.9309 31.3471 59.9526L28.9511 61.9065C28.9281 61.9254 28.899 61.9354 28.8691 61.9347ZM29.6725 62.8521C29.6462 62.8519 29.6206 62.8436 29.5992 62.8283C29.5778 62.8131 29.5616 62.7917 29.5528 62.7669C29.544 62.7422 29.543 62.7153 29.55 62.69C29.5569 62.6646 29.5715 62.642 29.5918 62.6253L31.9877 60.6714C32.0139 60.6501 32.0475 60.6401 32.0811 60.6435C32.1147 60.6468 32.1456 60.6633 32.1671 60.6893C32.1885 60.7154 32.1987 60.7488 32.1956 60.7824C32.1925 60.816 32.1762 60.847 32.1504 60.8687L29.7545 62.8239C29.7314 62.8428 29.7023 62.8528 29.6725 62.8521ZM30.2926 64.3742C30.2663 64.374 30.2407 64.3657 30.2193 64.3505C30.1979 64.3352 30.1817 64.3138 30.1729 64.289C30.1641 64.2643 30.1631 64.2374 30.1701 64.2121C30.1771 64.1867 30.1916 64.1642 30.2119 64.1474L32.6078 62.1948C32.634 62.1735 32.6676 62.1635 32.7012 62.1669C32.7348 62.1702 32.7657 62.1867 32.7872 62.2127C32.8086 62.2388 32.8188 62.2723 32.8157 62.3058C32.8126 62.3394 32.7964 62.3704 32.7705 62.3921L30.3746 64.346C30.3515 64.3649 30.3224 64.3749 30.2926 64.3742ZM20.1656 70.4512C20.1474 70.4511 20.1294 70.4472 20.1129 70.4397C20.0963 70.4322 20.0815 70.4213 20.0695 70.4076C20.0474 70.382 20.0363 70.3487 20.0384 70.3149C20.0406 70.2811 20.0559 70.2496 20.081 70.2269L26.9152 64.1948C26.9278 64.1836 26.9425 64.175 26.9585 64.1695C26.9744 64.164 26.9913 64.1617 27.0081 64.1627C27.025 64.1637 27.0414 64.168 27.0566 64.1754C27.0718 64.1828 27.0853 64.1931 27.0965 64.2057C27.1077 64.2183 27.1163 64.233 27.1218 64.249C27.1273 64.2649 27.1296 64.2818 27.1286 64.2986C27.1276 64.3154 27.1233 64.3319 27.1159 64.3471C27.1085 64.3622 27.0982 64.3758 27.0856 64.387L20.2514 70.4191C20.2276 70.4398 20.1971 70.4512 20.1656 70.4512ZM21.0471 71.612C21.029 71.6121 21.0111 71.6084 20.9945 71.6011C20.978 71.5938 20.9631 71.5831 20.951 71.5697C20.9284 71.5441 20.9168 71.5107 20.9187 71.4766C20.9206 71.4425 20.9359 71.4106 20.9613 71.3878L27.7954 65.3556C27.8081 65.3443 27.8229 65.3357 27.8389 65.3301C27.8549 65.3246 27.8719 65.3223 27.8888 65.3234C27.9057 65.3245 27.9223 65.3289 27.9375 65.3364C27.9527 65.3439 27.9662 65.3544 27.9774 65.3672C27.9995 65.3928 28.0106 65.4261 28.0085 65.4598C28.0063 65.4936 27.991 65.5252 27.9658 65.5478L21.1317 71.5799C21.1082 71.6003 21.0782 71.6117 21.0471 71.612ZM46.954 70.6715C46.9314 70.6716 46.9092 70.6657 46.8896 70.6545C46.87 70.6432 46.8538 70.627 46.8425 70.6075C46.8341 70.5928 46.8287 70.5765 46.8266 70.5597C46.8244 70.5429 46.8257 70.5259 46.8302 70.5095C46.8347 70.4932 46.8425 70.478 46.8529 70.4646C46.8634 70.4513 46.8764 70.4402 46.8912 70.4319L54.7837 65.8733C54.8134 65.8568 54.8483 65.8526 54.8811 65.8614C54.9138 65.8703 54.9418 65.8915 54.9592 65.9207C54.9677 65.9353 54.9732 65.9514 54.9754 65.9682C54.9776 65.9849 54.9765 66.002 54.972 66.0183C54.9676 66.0346 54.9601 66.0499 54.9497 66.0633C54.9394 66.0766 54.9265 66.0878 54.9118 66.0962L47.0193 70.6549C46.9997 70.6658 46.9764 70.6716 46.954 70.6715Z" fill="#AB0738"/>
<path d="M54.3416 21.4229C54.3167 21.423 54.2922 21.4159 54.2712 21.4024C54.0343 21.2464 53.7907 21.101 53.5409 20.9667C53.0212 20.6946 52.4779 20.4703 51.9175 20.2966C51.1003 20.0453 50.2559 19.8926 49.4024 19.8418C48.4455 19.7837 47.4851 19.8501 46.5452 20.0391C46.4748 20.0596 46.4081 20.0096 46.394 19.9392C46.3905 19.9228 46.3903 19.9058 46.3934 19.8893C46.3966 19.8728 46.403 19.8571 46.4123 19.8431C46.4216 19.8291 46.4337 19.8172 46.4477 19.8079C46.4617 19.7987 46.4775 19.7923 46.494 19.7893C47.4554 19.5962 48.4376 19.5277 49.4165 19.5856C50.2917 19.6379 51.1576 19.7945 51.9957 20.0519C52.8511 20.3139 53.6648 20.6965 54.4121 21.1884C54.4348 21.2037 54.4521 21.2258 54.4613 21.2516C54.4705 21.2774 54.4712 21.3054 54.4634 21.3316C54.4555 21.3578 54.4394 21.3808 54.4175 21.3973C54.3956 21.4137 54.369 21.4227 54.3416 21.4229ZM54.4864 22.6247C54.4619 22.6245 54.4379 22.6174 54.4172 22.6042C54.1804 22.4482 53.9367 22.3028 53.6869 22.1686C53.1673 21.8963 52.624 21.672 52.0636 21.4985C51.2458 21.2472 50.4011 21.0941 49.5472 21.0423C48.5894 20.9841 47.6281 21.0504 46.6875 21.2396C46.671 21.2436 46.6539 21.2441 46.6373 21.2411C46.6206 21.2381 46.6048 21.2317 46.5907 21.2223C46.5767 21.213 46.5647 21.2008 46.5555 21.1866C46.5464 21.1724 46.5403 21.1564 46.5375 21.1397C46.534 21.1233 46.5338 21.1063 46.5369 21.0898C46.5401 21.0733 46.5465 21.0576 46.5558 21.0436C46.5651 21.0297 46.5772 21.0177 46.5912 21.0084C46.6052 20.9992 46.621 20.9929 46.6375 20.9898C47.5996 20.7956 48.5829 20.7275 49.5626 20.7874C50.4368 20.8397 51.3018 20.9958 52.1392 21.2525C52.9951 21.5143 53.8092 21.897 54.5569 22.3889C54.5802 22.404 54.598 22.4262 54.6076 22.4522C54.6172 22.4782 54.6181 22.5067 54.6101 22.5333C54.6022 22.5598 54.5858 22.5831 54.5635 22.5996C54.5412 22.6161 54.5142 22.6249 54.4864 22.6247Z" fill="#231F20"/>
<path d="M49.5818 22.485C49.5568 22.485 49.5323 22.4778 49.5113 22.4642C49.4904 22.4505 49.4739 22.431 49.4639 22.4081L48.8233 20.968C48.816 20.9506 48.8129 20.9317 48.8143 20.9129L48.8335 19.6508C48.8335 19.5804 48.9091 19.5227 48.9642 19.5265C48.9977 19.5276 49.0295 19.5417 49.0528 19.5659C49.076 19.5901 49.0888 19.6224 49.0885 19.656L49.0706 20.8885L49.6996 22.3043C49.7132 22.3353 49.714 22.3703 49.7021 22.4019C49.6901 22.4335 49.6662 22.4592 49.6356 22.4734C49.6186 22.4806 49.6002 22.4854 49.5818 22.485ZM50.4825 22.6041C50.4672 22.604 50.4521 22.6014 50.4376 22.5964C50.4219 22.5905 50.4075 22.5814 50.3953 22.5699C50.383 22.5584 50.3732 22.5445 50.3663 22.5292C50.3594 22.5138 50.3555 22.4973 50.355 22.4805C50.3545 22.4636 50.3574 22.4469 50.3633 22.4311L50.9027 20.9897L51.0565 19.8763C51.0655 19.8059 51.1334 19.7482 51.2013 19.7674C51.2179 19.7696 51.2339 19.7751 51.2484 19.7835C51.2628 19.7919 51.2755 19.8031 51.2856 19.8165C51.2957 19.8298 51.3031 19.845 51.3073 19.8612C51.3116 19.8775 51.3125 19.8943 51.3102 19.9109L51.15 21.0525L50.6029 22.5208C50.5938 22.5454 50.5773 22.5665 50.5558 22.5814C50.5342 22.5963 50.5087 22.6042 50.4825 22.6041Z" fill="#231F20"/>
</svg>
