<svg width="82" height="81" viewBox="0 0 82 81" fill="none" xmlns="http://www.w3.org/2000/svg">
<path d="M37.2204 50.416H75.3939C76.2062 50.416 76.8622 51.0694 76.8622 51.8843V73.9064C76.8626 74.0994 76.8248 74.2906 76.7512 74.4689C76.6775 74.6472 76.5693 74.8092 76.4329 74.9456C76.2965 75.082 76.1345 75.19 75.9562 75.2637C75.7779 75.3374 75.5868 75.3754 75.3939 75.3751H37.2204C37.0275 75.3754 36.8363 75.3374 36.658 75.2637C36.4797 75.19 36.3177 75.082 36.1813 74.9456C36.0449 74.8092 35.9368 74.6472 35.8632 74.4689C35.7895 74.2906 35.7516 74.0994 35.752 73.9064V51.8843C35.752 51.0694 36.4081 50.416 37.2204 50.416Z" fill="#34485C"/>
<path d="M51.3961 51.0466V45.9062H60.206V51.0438" stroke="#576D7E" stroke-linecap="round" stroke-linejoin="round"/>
<path d="M37.2204 50.416C37.0275 50.4157 36.8363 50.4537 36.658 50.5274C36.4797 50.601 36.3177 50.7091 36.1813 50.8455C36.0449 50.9819 35.9368 51.1439 35.8632 51.3222C35.7895 51.5005 35.7516 51.6914 35.752 51.8843V56.7866C35.752 59.467 38.0428 61.622 40.8898 61.622H71.7244C74.5688 61.622 76.8622 59.467 76.8622 56.7866V51.8843C76.8626 51.6914 76.8248 51.5005 76.7512 51.3222C76.6775 51.1439 76.5693 50.9819 76.4329 50.8455C76.2965 50.7091 76.1345 50.601 75.9562 50.5274C75.7779 50.4537 75.5868 50.4157 75.3939 50.416H37.2204Z" fill="#2B4255"/>
<path d="M19.1982 28.0404V8.40122C19.1982 7.8836 19.5569 7.46875 20.0028 7.46875H31.2675C31.7134 7.46875 32.0722 7.8836 32.0722 8.40122V28.0404" stroke="#34485C" stroke-linecap="round" stroke-linejoin="round"/>
<path d="M18.6909 11.7761H32.5796" stroke="#34485C"/>
<path d="M19.7338 8.55005H31.5367V10.7025H19.7338V8.55005Z" fill="#78C8F0"/>
<path d="M40.9872 26.6875H10.25C8.83477 26.6875 7.6875 27.8348 7.6875 29.25V67.6875C7.6875 69.1027 8.83477 70.25 10.25 70.25H40.9872C42.4024 70.25 43.5497 69.1027 43.5497 67.6875V29.25C43.5497 27.8348 42.4024 26.6875 40.9872 26.6875Z" fill="#F05542"/>
<path fill-rule="evenodd" clip-rule="evenodd" d="M19.2059 40.0711V35.4306C19.2059 34.1391 20.277 33.0986 21.6095 33.0986H29.6148C30.9473 33.0986 32.0184 34.1365 32.0184 35.4306V40.0711" fill="#F17F53"/>
<path d="M19.2059 40.0711V35.4306C19.2059 34.1391 20.277 33.0986 21.6095 33.0986H29.6148C30.9473 33.0986 32.0184 34.1365 32.0184 35.4306V40.0711" stroke="#2B4255" stroke-linecap="round" stroke-linejoin="round"/>
<path fill-rule="evenodd" clip-rule="evenodd" d="M14.1271 70.3086V51.8712C14.1271 50.0006 15.6645 48.4939 17.5736 48.4939H33.6636C34.1118 48.4888 34.5566 48.5723 34.9726 48.7394C35.3885 48.9065 35.7674 49.1539 36.0876 49.4676C36.4077 49.7814 36.6628 50.1553 36.8383 50.5678C37.0138 50.9802 37.1061 51.423 37.1101 51.8712V70.3086" fill="#F17F53"/>
<path d="M14.1271 70.3086V51.8712C14.1271 50.0006 15.6645 48.4939 17.5736 48.4939H33.6636C34.1118 48.4888 34.5566 48.5723 34.9726 48.7394C35.3885 48.9065 35.7674 49.1539 36.0876 49.4676C36.4077 49.7814 36.6628 50.1553 36.8383 50.5678C37.0138 50.9802 37.1061 51.423 37.1101 51.8712V70.3086" stroke="#2B4255" stroke-linejoin="round"/>
<path fill-rule="evenodd" clip-rule="evenodd" d="M14.4116 53.5937H36.8257H14.4116ZM30.7424 52.999V57.4399V52.999Z" fill="#F17F53"/>
<path d="M14.4116 53.5937H36.8257M30.7424 52.999V57.4399" stroke="#2B4255"/>
<path d="M7.6875 40.7837H43.5497" stroke="#2B4255"/>
<path d="M14.0809 74.0938C15.4962 74.0938 16.6434 72.9465 16.6434 71.5312C16.6434 70.116 15.4962 68.9688 14.0809 68.9688C12.6657 68.9688 11.5184 70.116 11.5184 71.5312C11.5184 72.9465 12.6657 74.0938 14.0809 74.0938Z" fill="#FCD062" stroke="#F8B84E" stroke-linecap="round" stroke-linejoin="round"/>
<path d="M37.1434 74.0938C38.5587 74.0938 39.7059 72.9465 39.7059 71.5312C39.7059 70.116 38.5587 68.9688 37.1434 68.9688C35.7282 68.9688 34.5809 70.116 34.5809 71.5312C34.5809 72.9465 35.7282 74.0938 37.1434 74.0938Z" fill="#FCD062" stroke="#F8B84E" stroke-linecap="round" stroke-linejoin="round"/>
<path d="M59.245 59.9587H54.8401V62.8954H59.245V59.9587Z" fill="#F8B74E" fill-opacity="0.976"/>
</svg>
